<svg version="1.1" id="Layer_1" xmlns="http://www.w3.org/2000/svg" xmlns:xlink="http://www.w3.org/1999/xlink" x="0px" y="0px"
	 width="100%" viewBox="0 0 116 106" enable-background="new 0 0 116 106" xml:space="preserve">
<path fill="#FEFEFE" opacity="1.000000" stroke="none" 
	d="
M81.000000,107.000000 
	C54.000000,107.000000 27.500000,107.000000 1.000000,107.000000 
	C1.000000,71.666664 1.000000,36.333332 1.000000,1.000000 
	C39.666668,1.000000 78.333336,1.000000 117.000000,1.000000 
	C117.000000,36.333332 117.000000,71.666664 117.000000,107.000000 
	C105.166664,107.000000 93.333336,107.000000 81.000000,107.000000 
M56.662716,71.034683 
	C68.425613,68.275436 79.305679,64.200623 87.673759,54.634499 
	C94.154869,47.225494 95.771614,39.210342 92.482719,30.442120 
	C90.400551,24.891043 85.939049,20.393660 79.683044,20.180391 
	C73.522301,19.970369 67.134773,20.644278 61.151348,22.144882 
	C46.529099,25.812040 32.682308,31.164261 23.666304,44.450130 
	C16.923220,54.386654 19.429474,67.420517 31.195484,69.580132 
	C39.223068,71.053589 47.583874,70.711586 56.662716,71.034683 
z"/>
<path fill="#0F0F0F" opacity="1.000000" stroke="none" 
	d="
M56.229202,71.107986 
	C47.583874,70.711586 39.223068,71.053589 31.195484,69.580132 
	C19.429474,67.420517 16.923220,54.386654 23.666304,44.450130 
	C32.682308,31.164261 46.529099,25.812040 61.151348,22.144882 
	C67.134773,20.644278 73.522301,19.970369 79.683044,20.180391 
	C85.939049,20.393660 90.400551,24.891043 92.482719,30.442120 
	C95.771614,39.210342 94.154869,47.225494 87.673759,54.634499 
	C79.305679,64.200623 68.425613,68.275436 56.229202,71.107986 
M54.772663,29.942383 
	C51.343666,31.545263 47.690636,32.798889 44.532806,34.824505 
	C38.169163,38.906521 32.024887,43.375259 28.011034,50.041473 
	C24.442080,55.968800 26.914310,61.888931 33.521942,63.985077 
	C46.699780,68.165497 59.369217,65.987747 71.136627,59.831730 
	C78.947983,55.745281 85.647919,49.889957 87.040176,40.012444 
	C88.172348,31.980171 83.204185,25.134930 75.266174,25.806391 
	C68.628685,26.367842 62.114845,28.391171 54.772663,29.942383 
z"/>
<path fill="#FBFBFB" opacity="1.000000" stroke="none" 
	d="
M55.159454,29.854763 
	C62.114845,28.391171 68.628685,26.367842 75.266174,25.806391 
	C83.204185,25.134930 88.172348,31.980171 87.040176,40.012444 
	C85.647919,49.889957 78.947983,55.745281 71.136627,59.831730 
	C59.369217,65.987747 46.699780,68.165497 33.521942,63.985077 
	C26.914310,61.888931 24.442080,55.968800 28.011034,50.041473 
	C32.024887,43.375259 38.169163,38.906521 44.532806,34.824505 
	C47.690636,32.798889 51.343666,31.545263 55.159454,29.854763 
z"/>
</svg>