<svg version="1.1" id="Layer_1" xmlns="http://www.w3.org/2000/svg" xmlns:xlink="http://www.w3.org/1999/xlink" x="0px" y="0px"
	 width="100%" viewBox="0 0 116 106" enable-background="new 0 0 116 106" xml:space="preserve">
<path fill="#FEFEFE" opacity="1.000000" stroke="none" 
	d="
M66.000000,107.000000 
	C44.000000,107.000000 22.500000,107.000000 1.000000,107.000000 
	C1.000000,71.666664 1.000000,36.333332 1.000000,1.000000 
	C39.666668,1.000000 78.333336,1.000000 117.000000,1.000000 
	C117.000000,36.333332 117.000000,71.666664 117.000000,107.000000 
	C100.166664,107.000000 83.333336,107.000000 66.000000,107.000000 
M77.173859,12.972212 
	C72.724419,13.253050 68.043747,12.751577 63.875454,13.983606 
	C56.086555,16.285780 48.654263,19.764389 40.964153,22.438822 
	C32.248631,25.469866 26.405800,31.772532 21.561401,39.103691 
	C17.212702,45.684700 18.772726,54.115875 24.248919,59.582130 
	C28.725592,64.050682 34.537991,63.551361 39.844799,64.189583 
	C51.628456,65.606750 62.813347,63.079700 73.661751,58.064594 
	C84.615143,53.000950 93.172485,41.005524 92.894890,29.517366 
	C92.692665,21.148195 86.624771,14.375527 77.173859,12.972212 
M29.058657,93.611305 
	C29.994596,97.367500 33.005013,96.250648 35.140877,95.750946 
	C49.499203,92.391754 63.817078,88.855354 78.113335,85.239067 
	C80.814140,84.555885 83.480141,83.476730 85.916115,82.133873 
	C86.872704,81.606544 87.153862,79.853966 87.742607,78.659370 
	C86.466080,78.358276 85.065918,77.554550 83.932037,77.833435 
	C71.885452,80.796387 59.853680,83.829430 47.876450,87.060478 
	C41.593315,88.755455 35.426147,90.880318 29.058657,93.611305 
z"/>
<path fill="#0F0F0F" opacity="1.000000" stroke="none" 
	d="
M77.623245,12.972872 
	C86.624771,14.375527 92.692665,21.148195 92.894890,29.517366 
	C93.172485,41.005524 84.615143,53.000950 73.661751,58.064594 
	C62.813347,63.079700 51.628456,65.606750 39.844799,64.189583 
	C34.537991,63.551361 28.725592,64.050682 24.248919,59.582130 
	C18.772726,54.115875 17.212702,45.684700 21.561401,39.103691 
	C26.405800,31.772532 32.248631,25.469866 40.964153,22.438822 
	C48.654263,19.764389 56.086555,16.285780 63.875454,13.983606 
	C68.043747,12.751577 72.724419,13.253050 77.623245,12.972872 
M59.342346,56.982544 
	C62.418301,55.935501 65.755707,55.343845 68.521202,53.756065 
	C76.825142,48.988441 84.467415,43.560081 86.052025,32.940571 
	C87.235222,25.011168 82.146172,18.458906 74.184814,18.728958 
	C70.128746,18.866539 66.045029,19.689457 62.076523,20.634119 
	C48.607872,23.840199 36.907738,30.176493 28.171457,41.151459 
	C23.564207,46.939323 23.818056,54.910908 33.732044,57.272114 
	C41.991985,59.239376 50.284161,60.344784 59.342346,56.982544 
z"/>
<path fill="#0F0F0F" opacity="1.000000" stroke="none" 
	d="
M29.132633,93.211174 
	C35.426147,90.880318 41.593315,88.755455 47.876450,87.060478 
	C59.853680,83.829430 71.885452,80.796387 83.932037,77.833435 
	C85.065918,77.554550 86.466080,78.358276 87.742607,78.659370 
	C87.153862,79.853966 86.872704,81.606544 85.916115,82.133873 
	C83.480141,83.476730 80.814140,84.555885 78.113335,85.239067 
	C63.817078,88.855354 49.499203,92.391754 35.140877,95.750946 
	C33.005013,96.250648 29.994596,97.367500 29.132633,93.211174 
z"/>
<path fill="#FBFBFB" opacity="1.000000" stroke="none" 
	d="
M58.925529,56.999626 
	C50.284161,60.344784 41.991985,59.239376 33.732044,57.272114 
	C23.818056,54.910908 23.564207,46.939323 28.171457,41.151459 
	C36.907738,30.176493 48.607872,23.840199 62.076523,20.634119 
	C66.045029,19.689457 70.128746,18.866539 74.184814,18.728958 
	C82.146172,18.458906 87.235222,25.011168 86.052025,32.940571 
	C84.467415,43.560081 76.825142,48.988441 68.521202,53.756065 
	C65.755707,55.343845 62.418301,55.935501 58.925529,56.999626 
z"/>
</svg>