<svg version="1.1" id="Layer_1" xmlns="http://www.w3.org/2000/svg" xmlns:xlink="http://www.w3.org/1999/xlink" x="0px" y="0px"
	 width="100%" viewBox="0 0 116 106" enable-background="new 0 0 116 106" xml:space="preserve">
<path fill="#FEFEFE" opacity="1.000000" stroke="none" 
	d="
M80.000000,107.000000 
	C53.333332,107.000000 27.166666,107.000000 1.000000,107.000000 
	C1.000000,71.666664 1.000000,36.333332 1.000000,1.000000 
	C39.666668,1.000000 78.333336,1.000000 117.000000,1.000000 
	C117.000000,36.333332 117.000000,71.666664 117.000000,107.000000 
	C104.833336,107.000000 92.666664,107.000000 80.000000,107.000000 
M39.123821,69.337326 
	C51.409645,70.131210 63.115948,68.477768 74.486435,63.151913 
	C86.026405,57.746674 94.607124,45.414787 93.856400,33.214260 
	C93.366966,25.260126 85.744225,17.625648 77.774208,18.103636 
	C70.804848,18.521610 63.722210,19.415577 57.010628,21.264524 
	C43.877934,24.882401 31.890182,30.602665 23.645206,42.346275 
	C19.833054,47.776062 18.915413,53.869781 20.960335,59.368858 
	C22.876783,64.522461 27.592970,68.236755 34.068352,68.094902 
	C35.451653,68.064590 36.853626,68.886589 39.123821,69.337326 
M58.350609,88.797340 
	C58.686333,87.069450 59.022060,85.341560 59.357784,83.613670 
	C56.685562,83.731903 53.868500,83.416008 51.428448,84.230103 
	C50.686192,84.477753 50.983547,87.841385 50.804764,89.777885 
	C53.131641,89.640152 55.458523,89.502419 58.350609,88.797340 
z"/>
<path fill="#0F0F0F" opacity="1.000000" stroke="none" 
	d="
M38.685410,69.326630 
	C36.853626,68.886589 35.451653,68.064590 34.068352,68.094902 
	C27.592970,68.236755 22.876783,64.522461 20.960335,59.368858 
	C18.915413,53.869781 19.833054,47.776062 23.645206,42.346275 
	C31.890182,30.602665 43.877934,24.882401 57.010628,21.264524 
	C63.722210,19.415577 70.804848,18.521610 77.774208,18.103636 
	C85.744225,17.625648 93.366966,25.260126 93.856400,33.214260 
	C94.607124,45.414787 86.026405,57.746674 74.486435,63.151913 
	C63.115948,68.477768 51.409645,70.131210 38.685410,69.326630 
M56.320530,27.561142 
	C53.325573,28.910128 50.325665,30.248234 47.336632,31.610220 
	C39.533829,35.165653 33.151344,40.502525 28.361849,47.557816 
	C24.128328,53.794113 26.679441,59.844540 33.913666,62.058044 
	C46.747932,65.985039 59.008617,63.981323 70.587204,58.025616 
	C78.882645,53.758678 85.677948,47.774406 87.159859,37.647572 
	C88.273460,30.037584 82.975723,23.211201 75.370880,23.785580 
	C69.210251,24.250881 63.147598,26.013288 56.320530,27.561142 
z"/>
<path fill="#090909" opacity="1.000000" stroke="none" 
	d="
M58.068005,89.081009 
	C55.458523,89.502419 53.131641,89.640152 50.804764,89.777893 
	C50.983547,87.841385 50.686192,84.477753 51.428448,84.230103 
	C53.868500,83.416008 56.685562,83.731903 59.357788,83.613670 
	C59.022060,85.341560 58.686333,87.069450 58.068005,89.081009 
z"/>
<path fill="#FBFBFB" opacity="1.000000" stroke="none" 
	d="
M56.681007,27.380754 
	C63.147598,26.013288 69.210251,24.250881 75.370880,23.785580 
	C82.975723,23.211201 88.273460,30.037584 87.159859,37.647572 
	C85.677948,47.774406 78.882645,53.758678 70.587204,58.025616 
	C59.008617,63.981323 46.747932,65.985039 33.913666,62.058044 
	C26.679441,59.844540 24.128328,53.794113 28.361849,47.557816 
	C33.151344,40.502525 39.533829,35.165653 47.336632,31.610220 
	C50.325665,30.248234 53.325573,28.910128 56.681007,27.380754 
z"/>
</svg>