<svg version="1.1" id="Layer_1" xmlns="http://www.w3.org/2000/svg" xmlns:xlink="http://www.w3.org/1999/xlink" x="0px" y="0px"
	 width="100%" viewBox="0 0 146 191" enable-background="new 0 0 146 191" xml:space="preserve">
<path fill="#FEFEFE" opacity="1.000000" stroke="none" 
	d="
M79.000000,192.000000 
	C52.685841,192.000000 26.871679,192.000000 1.028760,192.000000 
	C1.028760,128.399765 1.028760,64.799522 1.028760,1.099640 
	C49.563934,1.099640 98.128143,1.099640 146.846176,1.099640 
	C146.846176,64.666367 146.846176,128.333145 146.846176,192.000000 
	C124.466515,192.000000 101.983253,192.000000 79.000000,192.000000 
M17.054213,155.727646 
	C16.958246,158.560165 18.158297,160.117355 21.557640,160.030502 
	C21.557640,160.030502 21.929686,160.219925 21.953777,160.977966 
	C24.931852,163.922272 27.451101,167.861053 31.026516,169.510651 
	C34.144173,170.949051 38.484810,170.101501 42.223267,169.695206 
	C44.530510,169.444458 46.704620,168.118195 45.189022,164.165222 
	C45.083961,162.785294 44.978901,161.405350 45.354656,159.607147 
	C44.089432,158.464188 42.676521,156.216965 41.583717,156.363144 
	C35.848831,157.130173 33.056129,153.173096 29.726370,149.889450 
	C28.948040,149.121902 27.898350,148.629532 26.634804,147.220734 
	C24.431425,137.867661 25.220423,129.017105 31.781624,120.950523 
	C37.386028,118.548172 41.224171,111.928482 40.799526,105.771446 
	C40.799526,105.771446 40.675220,105.630501 41.456860,105.771278 
	C42.919403,104.730995 44.474869,103.795258 45.808472,102.609909 
	C46.568230,101.934631 46.909649,100.810493 47.536018,99.959564 
	C50.339336,96.151230 53.170830,92.363556 56.007797,88.580147 
	C56.655758,87.716019 57.216816,86.408287 58.074127,86.147675 
	C61.141720,85.215134 61.156116,83.132584 60.770149,80.762779 
	C60.770149,80.762779 60.674435,80.618439 61.502029,80.794205 
	C65.633476,81.269135 66.356865,79.056999 65.640228,75.629387 
	C65.640228,75.629387 65.649292,75.548386 66.415665,75.734138 
	C67.474358,75.393570 68.863274,75.367912 69.537582,74.660789 
	C73.596329,70.404564 77.366684,65.869385 81.492157,61.682365 
	C83.634567,59.507984 86.271683,57.807510 88.752319,55.984108 
	C90.804832,54.475399 93.100471,53.271034 95.032745,51.630684 
	C99.031372,48.236164 102.511330,44.088604 106.885292,41.330044 
	C109.634453,39.596214 110.285294,38.152748 109.998062,35.171520 
	C110.282463,35.006393 110.588600,34.936657 111.675735,35.137630 
	C112.452957,35.096848 113.230179,35.056065 114.669083,34.736961 
	C116.425308,33.835407 118.197594,32.963558 119.933922,32.025177 
	C122.394043,30.695623 125.970863,30.289742 125.014481,25.993111 
	C125.014481,25.993111 125.056221,26.033871 125.814743,26.069410 
	C128.748276,25.655722 131.896011,25.420828 130.162338,20.171089 
	C129.547318,18.142433 128.932312,16.113779 128.317291,14.085123 
	C126.298775,14.796093 124.092102,15.194530 122.296440,16.275646 
	C116.520058,19.753439 110.895363,23.483152 104.408478,27.039606 
	C100.479927,29.415930 96.493942,31.707186 92.693382,34.273090 
	C92.202164,34.604729 92.670212,36.357212 92.559532,37.572144 
	C92.559532,37.572144 92.419586,37.686241 91.638344,37.279461 
	C87.252731,36.032463 86.542061,38.956657 85.741417,42.738205 
	C81.886230,45.859444 78.031044,48.980682 73.390633,52.063065 
	C66.167236,53.107639 62.742268,59.547321 58.687611,64.046326 
	C54.303085,68.911346 48.599834,72.980713 46.285568,80.141182 
	C44.842155,84.607185 39.968491,88.121468 36.244324,91.651535 
	C32.090538,95.588806 27.365705,98.957062 26.934769,105.381760 
	C26.899479,105.907890 26.282297,106.442055 25.847586,106.886497 
	C23.490461,109.296394 20.543289,111.354927 18.915325,114.178017 
	C17.698839,116.287567 18.172482,119.371735 17.967241,122.909111 
	C18.213579,123.434410 18.459915,123.959717 18.602709,125.045456 
	C18.405409,125.364761 18.208111,125.684067 17.261332,125.980469 
	C11.953217,128.169373 11.095867,130.147018 12.923281,136.874603 
	C12.918632,138.916519 12.913982,140.958420 12.451510,143.378647 
	C12.605834,144.252625 12.760159,145.126587 12.928791,146.666229 
	C12.967565,147.108398 13.006337,147.550568 12.538960,148.429184 
	C12.016443,151.999008 13.735550,154.025833 17.070053,154.971191 
	C17.070053,154.971191 17.085966,154.941071 17.054213,155.727646 
z"/>
<path fill="#080808" opacity="1.000000" stroke="none" 
	d="
M44.873844,160.025421 
	C44.978901,161.405350 45.083961,162.785294 44.756767,164.771210 
	C35.565250,169.278534 28.617498,165.313599 21.929686,160.219925 
	C21.929686,160.219925 21.557640,160.030502 21.324724,159.626678 
	C20.426716,157.805283 19.761623,156.387711 19.162346,154.557343 
	C18.030451,146.446014 13.704681,139.084305 16.894009,130.599655 
	C17.376490,128.846527 17.693649,127.424950 18.010811,126.003372 
	C18.208111,125.684067 18.405409,125.364761 18.913219,124.565826 
	C20.124990,122.045792 21.026251,120.005371 22.193050,117.750656 
	C30.300474,106.141769 37.579376,94.301895 46.141476,83.476974 
	C54.826435,72.496719 64.778664,62.518822 74.175865,52.101921 
	C78.031044,48.980682 81.886230,45.859444 86.253281,42.406693 
	C88.649963,40.612198 90.534775,39.149220 92.419586,37.686241 
	C92.419586,37.686241 92.559532,37.572144 92.920059,37.376411 
	C97.257790,33.825691 101.234978,30.470703 105.212166,27.115715 
	C110.895363,23.483152 116.520058,19.753439 122.296440,16.275646 
	C124.092102,15.194530 126.298775,14.796093 128.317291,14.085123 
	C128.932312,16.113779 129.547318,18.142433 129.822067,20.756664 
	C128.006607,22.906116 126.531418,24.469994 125.056221,26.033871 
	C125.056221,26.033871 125.014481,25.993111 124.672531,26.057819 
	C120.872009,28.377850 117.413429,30.633169 113.639404,32.940910 
	C112.521461,33.649654 111.718964,34.305984 110.916458,34.962311 
	C110.588600,34.936657 110.282463,35.006393 109.458214,35.357304 
	C104.954269,38.798351 101.075897,42.165253 97.009796,45.287682 
	C85.409660,54.195648 74.126526,63.412323 65.649292,75.548386 
	C65.649292,75.548386 65.640228,75.629387 65.309387,75.770721 
	C63.543842,77.480858 62.109138,79.049644 60.674435,80.618439 
	C60.674435,80.618439 60.770149,80.762779 60.390602,80.840942 
	C53.565773,89.156242 47.120495,97.393372 40.675217,105.630501 
	C40.675220,105.630501 40.799526,105.771446 40.420006,105.879730 
	C37.039085,110.995575 34.037689,116.003143 31.036291,121.010712 
	C25.220423,129.017105 24.431425,137.867661 26.793972,147.998993 
	C27.642538,153.022171 29.548233,156.107269 34.137718,157.102631 
	C37.757465,157.887680 41.298084,159.037567 44.873844,160.025421 
z"/>
<path fill="#D0D0D0" opacity="1.000000" stroke="none" 
	d="
M73.783249,52.082497 
	C64.778664,62.518822 54.826435,72.496719 46.141476,83.476974 
	C37.579376,94.301895 30.300474,106.141769 21.846218,117.768539 
	C20.120407,119.341125 19.006964,120.681519 17.893517,122.021912 
	C18.172482,119.371735 17.698839,116.287567 18.915325,114.178017 
	C20.543289,111.354927 23.490461,109.296394 25.847586,106.886497 
	C26.282297,106.442055 26.899479,105.907890 26.934769,105.381760 
	C27.365705,98.957062 32.090538,95.588806 36.244324,91.651535 
	C39.968491,88.121468 44.842155,84.607185 46.285568,80.141182 
	C48.599834,72.980713 54.303085,68.911346 58.687611,64.046326 
	C62.742268,59.547321 66.167236,53.107639 73.783249,52.082497 
z"/>
<path fill="#D0D0D0" opacity="1.000000" stroke="none" 
	d="
M66.032478,75.641266 
	C74.126526,63.412323 85.409660,54.195648 97.009796,45.287682 
	C101.075897,42.165253 104.954269,38.798351 109.262039,35.492332 
	C110.285294,38.152748 109.634453,39.596214 106.885292,41.330044 
	C102.511330,44.088604 99.031372,48.236164 95.032745,51.630684 
	C93.100471,53.271034 90.804832,54.475399 88.752319,55.984108 
	C86.271683,57.807510 83.634567,59.507984 81.492157,61.682365 
	C77.366684,65.869385 73.596329,70.404564 69.537582,74.660789 
	C68.863274,75.367912 67.474358,75.393570 66.032478,75.641266 
z"/>
<path fill="#D0D0D0" opacity="1.000000" stroke="none" 
	d="
M41.066040,105.700890 
	C47.120495,97.393372 53.565773,89.156242 60.317081,80.795189 
	C61.156116,83.132584 61.141720,85.215134 58.074127,86.147675 
	C57.216816,86.408287 56.655758,87.716019 56.007797,88.580147 
	C53.170830,92.363556 50.339336,96.151230 47.536018,99.959564 
	C46.909649,100.810493 46.568230,101.934631 45.808472,102.609909 
	C44.474869,103.795258 42.919403,104.730995 41.066040,105.700890 
z"/>
<path fill="#C4C4C4" opacity="1.000000" stroke="none" 
	d="
M21.941730,160.598938 
	C28.617498,165.313599 35.565250,169.278534 44.670944,165.189911 
	C46.704620,168.118195 44.530510,169.444458 42.223267,169.695206 
	C38.484810,170.101501 34.144173,170.949051 31.026516,169.510651 
	C27.451101,167.861053 24.931852,163.922272 21.941730,160.598938 
z"/>
<path fill="#A4A4A4" opacity="1.000000" stroke="none" 
	d="
M16.728689,130.931198 
	C13.704681,139.084305 18.030451,146.446014 18.826904,154.569595 
	C17.979088,154.976776 17.532526,154.958923 17.085966,154.941071 
	C17.085966,154.941071 17.070053,154.971191 17.079050,154.572952 
	C17.096874,151.226944 16.689211,148.551544 13.045110,147.992737 
	C13.006337,147.550568 12.967565,147.108398 13.180471,146.157761 
	C13.257879,144.766312 13.083607,143.883316 12.909332,143.000336 
	C12.913982,140.958420 12.918632,138.916519 13.195873,136.226898 
	C14.555207,134.029861 15.641949,132.480530 16.728689,130.931198 
z"/>
<path fill="#C4C4C4" opacity="1.000000" stroke="none" 
	d="
M45.114250,159.816284 
	C41.298084,159.037567 37.757465,157.887680 34.137718,157.102631 
	C29.548233,156.107269 27.642538,153.022171 26.963324,148.393906 
	C27.898350,148.629532 28.948040,149.121902 29.726370,149.889450 
	C33.056129,153.173096 35.848831,157.130173 41.583717,156.363144 
	C42.676521,156.216965 44.089432,158.464188 45.114250,159.816284 
z"/>
<path fill="#D0D0D0" opacity="1.000000" stroke="none" 
	d="
M31.408958,120.980621 
	C34.037689,116.003143 37.039085,110.995575 40.336449,105.836731 
	C41.224171,111.928482 37.386028,118.548172 31.408958,120.980621 
z"/>
<path fill="#D8D8D8" opacity="1.000000" stroke="none" 
	d="
M104.810318,27.077662 
	C101.234978,30.470703 97.257790,33.825691 92.987251,37.316101 
	C92.670212,36.357212 92.202164,34.604729 92.693382,34.273090 
	C96.493942,31.707186 100.479927,29.415930 104.810318,27.077662 
z"/>
<path fill="#DDDDDD" opacity="1.000000" stroke="none" 
	d="
M113.954857,32.888489 
	C117.413429,30.633169 120.872009,28.377850 124.679413,26.086109 
	C125.970863,30.289742 122.394043,30.695623 119.933922,32.025177 
	C118.197594,32.963558 116.425308,33.835407 114.335770,34.521263 
	C113.986595,33.833202 113.970726,33.360847 113.954857,32.888489 
z"/>
<path fill="#D0D0D0" opacity="1.000000" stroke="none" 
	d="
M16.894009,130.599655 
	C15.641949,132.480530 14.555207,134.029861 13.193157,135.789368 
	C11.095867,130.147018 11.953217,128.169373 17.636070,125.991920 
	C17.693649,127.424950 17.376490,128.846527 16.894009,130.599655 
z"/>
<path fill="#D0D0D0" opacity="1.000000" stroke="none" 
	d="
M12.792034,148.210968 
	C16.689211,148.551544 17.096874,151.226944 17.062447,154.569153 
	C13.735550,154.025833 12.016443,151.999008 12.792034,148.210968 
z"/>
<path fill="#D8D8D8" opacity="1.000000" stroke="none" 
	d="
M92.028961,37.482849 
	C90.534775,39.149220 88.649963,40.612198 86.425919,42.122902 
	C86.542061,38.956657 87.252731,36.032463 92.028961,37.482849 
z"/>
<path fill="#D0D0D0" opacity="1.000000" stroke="none" 
	d="
M61.088234,80.706322 
	C62.109138,79.049644 63.543842,77.480858 65.269562,75.779373 
	C66.356865,79.056999 65.633476,81.269135 61.088234,80.706322 
z"/>
<path fill="#DDDDDD" opacity="1.000000" stroke="none" 
	d="
M125.435486,26.051641 
	C126.531418,24.469994 128.006607,22.906116 129.760590,21.175371 
	C131.896011,25.420828 128.748276,25.655722 125.435486,26.051641 
z"/>
<path fill="#C4C4C4" opacity="1.000000" stroke="none" 
	d="
M17.070089,155.334351 
	C17.532526,154.958923 17.979088,154.976776 18.761089,154.982391 
	C19.761623,156.387711 20.426716,157.805283 21.126310,159.561829 
	C18.158297,160.117355 16.958246,158.560165 17.070089,155.334351 
z"/>
<path fill="#A7A7A7" opacity="1.000000" stroke="none" 
	d="
M17.930382,122.465515 
	C19.006964,120.681519 20.120407,119.341125 21.580681,117.982841 
	C21.026251,120.005371 20.124990,122.045792 18.964991,124.285614 
	C18.459915,123.959717 18.213579,123.434410 17.930382,122.465515 
z"/>
<path fill="#D0D0D0" opacity="1.000000" stroke="none" 
	d="
M12.680422,143.189484 
	C13.083607,143.883316 13.257879,144.766312 13.173317,145.824921 
	C12.760159,145.126587 12.605834,144.252625 12.680422,143.189484 
z"/>
<path fill="#D0D0D0" opacity="1.000000" stroke="none" 
	d="
M113.639404,32.940910 
	C113.970726,33.360847 113.986595,33.833202 114.004929,34.660423 
	C113.230179,35.056065 112.452957,35.096848 111.296097,35.049973 
	C111.718964,34.305984 112.521461,33.649654 113.639404,32.940910 
z"/>
</svg>