<svg version="1.1" id="Layer_1" xmlns="http://www.w3.org/2000/svg" xmlns:xlink="http://www.w3.org/1999/xlink" x="0px" y="0px"
	 width="100%" viewBox="0 0 141 138" enable-background="new 0 0 141 138" xml:space="preserve">
<path fill="#FEFEFE" opacity="1.000000" stroke="none" 
	d="
M69.000000,139.000000 
	C46.000000,139.000000 23.500000,139.000000 1.000000,139.000000 
	C1.000000,93.000000 1.000000,47.000000 1.000000,1.000000 
	C48.000000,1.000000 95.000000,1.000000 142.000000,1.000000 
	C142.000000,47.000000 142.000000,93.000000 142.000000,139.000000 
	C117.833336,139.000000 93.666664,139.000000 69.000000,139.000000 
M70.637215,75.963264 
	C74.713478,74.401947 79.917572,66.549385 80.049675,61.195415 
	C87.121040,50.858925 94.331055,40.611805 101.113396,30.089033 
	C102.124039,28.521032 101.123215,25.656569 101.052948,23.391876 
	C99.098450,23.681622 96.114265,23.255749 95.341911,24.367073 
	C80.744064,45.371311 66.397232,66.550171 52.024921,87.710854 
	C48.882339,92.337753 45.879246,97.059303 42.745239,101.692154 
	C40.183540,105.478981 37.165344,109.012848 35.073296,113.035286 
	C34.179699,114.753433 34.255119,118.464615 35.423290,119.446808 
	C37.650299,121.319283 40.338921,119.992775 42.042274,117.450005 
	C51.314178,103.609070 60.600765,89.777977 70.637215,75.963264 
z"/>
<path fill="#040404" opacity="1.000000" stroke="none" 
	d="
M69.882294,75.943497 
	C60.600765,89.777977 51.314178,103.609070 42.042274,117.450005 
	C40.338921,119.992775 37.650299,121.319283 35.423290,119.446808 
	C34.255119,118.464615 34.179699,114.753433 35.073296,113.035286 
	C37.165344,109.012848 40.183540,105.478981 42.745239,101.692154 
	C45.879246,97.059303 48.882339,92.337753 52.024921,87.710854 
	C66.397232,66.550171 80.744064,45.371311 95.341911,24.367073 
	C96.114265,23.255749 99.098450,23.681622 101.052948,23.391876 
	C101.123215,25.656569 102.124039,28.521032 101.113396,30.089033 
	C94.331055,40.611805 87.121040,50.858925 79.681427,61.689762 
	C76.169556,66.770569 73.025925,71.357033 69.882294,75.943497 
z"/>
<path fill="#E1E1E1" opacity="1.000000" stroke="none" 
	d="
M70.259750,75.953377 
	C73.025925,71.357033 76.169556,66.770569 79.633636,62.044479 
	C79.917572,66.549385 74.713478,74.401947 70.259750,75.953377 
z"/>
</svg>