<svg version="1.1" id="Layer_1" xmlns="http://www.w3.org/2000/svg" xmlns:xlink="http://www.w3.org/1999/xlink" x="0px" y="0px"
	 width="100%" viewBox="0 0 171 126" enable-background="new 0 0 171 126" xml:space="preserve">
<path fill="#FEFEFE" opacity="1.000000" stroke="none" 
	d="
M124.000000,127.000000 
	C82.666679,127.000000 41.833359,127.000000 1.000027,127.000000 
	C1.000018,85.000023 1.000018,43.000050 1.000009,1.000056 
	C57.999958,1.000037 114.999916,1.000037 171.999908,1.000018 
	C171.999939,42.999947 171.999939,84.999893 171.999969,126.999924 
	C156.166672,127.000000 140.333328,127.000000 124.000000,127.000000 
M150.681870,23.988951 
	C151.729797,23.493248 152.777725,22.997543 153.825653,22.501837 
	C152.212112,20.388676 151.003891,17.379517 148.870911,16.414585 
	C146.741852,15.451429 142.798767,14.431893 141.773315,19.734894 
	C130.028671,27.474592 118.293373,35.228512 106.537140,42.950562 
	C90.193390,53.685921 73.816978,64.371613 57.485996,75.126328 
	C41.056034,85.946228 24.703590,96.884476 8.220304,107.622154 
	C5.251066,109.556396 3.580539,112.187813 5.680968,114.754417 
	C6.635913,115.921303 10.989429,115.534622 12.974288,114.402565 
	C19.127941,110.892868 24.873232,106.669968 30.797680,102.755142 
	C57.824520,84.896011 84.864799,67.057213 111.887016,49.191090 
	C124.572929,40.803619 137.228943,32.370937 150.681870,23.988951 
z"/>
<path fill="#020202" opacity="1.000000" stroke="none" 
	d="
M149.898514,23.958748 
	C137.228943,32.370937 124.572929,40.803619 111.887016,49.191090 
	C84.864799,67.057213 57.824520,84.896011 30.797680,102.755142 
	C24.873232,106.669968 19.127941,110.892868 12.974288,114.402565 
	C10.989429,115.534622 6.635913,115.921303 5.680968,114.754417 
	C3.580539,112.187813 5.251066,109.556396 8.220304,107.622154 
	C24.703590,96.884476 41.056034,85.946228 57.485996,75.126328 
	C73.816978,64.371613 90.193390,53.685921 106.537140,42.950562 
	C118.293373,35.228512 130.028671,27.474592 142.305359,19.361862 
	C148.807617,16.725838 150.096252,17.632841 149.898514,23.958748 
z"/>
<path fill="#F1F1F1" opacity="1.000000" stroke="none" 
	d="
M150.290192,23.973850 
	C150.096252,17.632841 148.807617,16.725838 142.437592,19.041288 
	C142.798767,14.431893 146.741852,15.451429 148.870911,16.414585 
	C151.003891,17.379517 152.212112,20.388676 153.825653,22.501839 
	C152.777725,22.997543 151.729797,23.493248 150.290192,23.973850 
z"/>
</svg>