<svg version="1.1" id="Layer_1" xmlns="http://www.w3.org/2000/svg" xmlns:xlink="http://www.w3.org/1999/xlink" x="0px" y="0px"
	 width="100%" viewBox="0 0 141 121" enable-background="new 0 0 141 121" xml:space="preserve">
<path fill="#FEFEFE" opacity="1.000000" stroke="none" 
	d="
M80.000000,122.000000 
	C53.333332,122.000000 27.166666,122.000000 1.000000,122.000000 
	C1.000000,81.666664 1.000000,41.333332 1.000000,1.000000 
	C48.000000,1.000000 95.000000,1.000000 142.000000,1.000000 
	C142.000000,41.333332 142.000000,81.666664 142.000000,122.000000 
	C121.500000,122.000000 101.000000,122.000000 80.000000,122.000000 
M55.333069,78.023170 
	C54.255638,79.080292 53.178207,80.137413 51.734295,81.758316 
	C42.519154,88.159660 33.225883,94.454308 24.175957,101.081268 
	C22.869175,102.038177 21.878464,104.852272 22.327421,106.322716 
	C22.676132,107.464828 25.563751,108.553902 27.200375,108.396088 
	C29.202503,108.203011 31.186769,106.856834 32.989052,105.710892 
	C48.824829,95.642090 63.846962,84.527390 76.896767,70.942192 
	C84.525131,63.000870 90.781738,54.466873 89.783417,42.518547 
	C89.291420,36.630051 82.372078,26.411457 76.887825,25.051270 
	C75.193130,24.630959 72.572624,25.492483 71.319420,26.725767 
	C70.642418,27.392002 71.743767,30.174976 72.456207,31.824453 
	C72.867416,32.776485 74.056847,33.432961 74.973236,34.119362 
	C79.509560,37.517197 81.061852,41.937717 80.602592,47.604439 
	C80.010292,54.912716 75.487457,59.467983 69.860580,63.903061 
	C66.145233,66.223694 61.881046,68.019096 60.897228,73.550117 
	C60.715736,73.831963 60.460323,74.004158 59.362778,74.046501 
	C58.263721,75.391525 57.164669,76.736549 56.003498,78.003067 
	C56.003498,78.003067 56.082085,78.065094 55.333069,78.023170 
z"/>
<path fill="#090909" opacity="1.000000" stroke="none" 
	d="
M70.542648,63.917313 
	C75.487457,59.467983 80.010292,54.912716 80.602592,47.604439 
	C81.061852,41.937717 79.509560,37.517197 74.973236,34.119362 
	C74.056847,33.432961 72.867416,32.776485 72.456207,31.824453 
	C71.743767,30.174976 70.642418,27.392002 71.319420,26.725767 
	C72.572624,25.492483 75.193130,24.630959 76.887825,25.051270 
	C82.372078,26.411457 89.291420,36.630051 89.783417,42.518547 
	C90.781738,54.466873 84.525131,63.000870 76.896767,70.942192 
	C63.846962,84.527390 48.824829,95.642090 32.989052,105.710892 
	C31.186769,106.856834 29.202503,108.203011 27.200375,108.396088 
	C25.563751,108.553902 22.676132,107.464828 22.327421,106.322716 
	C21.878464,104.852272 22.869175,102.038177 24.175957,101.081268 
	C33.225883,94.454308 42.519154,88.159660 52.249218,81.436554 
	C53.870125,80.098236 54.976105,79.081665 56.082085,78.065094 
	C56.082085,78.065094 56.003498,78.003067 56.357845,77.948875 
	C57.851791,76.618690 58.991390,75.342690 60.130985,74.066696 
	C60.460323,74.004158 60.715736,73.831963 61.301628,73.228943 
	C64.651573,69.910957 67.597115,66.914139 70.542648,63.917313 
z"/>
<path fill="#D7D7D7" opacity="1.000000" stroke="none" 
	d="
M70.201614,63.910187 
	C67.597115,66.914139 64.651573,69.910957 61.380432,73.006180 
	C61.881046,68.019096 66.145233,66.223694 70.201614,63.910187 
z"/>
<path fill="#D7D7D7" opacity="1.000000" stroke="none" 
	d="
M59.746880,74.056595 
	C58.991390,75.342690 57.851791,76.618690 56.388901,77.988129 
	C57.164669,76.736549 58.263721,75.391525 59.746880,74.056595 
z"/>
<path fill="#D7D7D7" opacity="1.000000" stroke="none" 
	d="
M55.707577,78.044128 
	C54.976105,79.081665 53.870125,80.098236 52.432461,81.154663 
	C53.178207,80.137413 54.255638,79.080292 55.707577,78.044128 
z"/>
</svg>