<svg version="1.1" id="Layer_1" xmlns="http://www.w3.org/2000/svg" xmlns:xlink="http://www.w3.org/1999/xlink" x="0px" y="0px"
	 width="100%" viewBox="0 0 217 128" enable-background="new 0 0 217 128" xml:space="preserve">
<path fill="#FEFEFE" opacity="1.000000" stroke="none" 
	d="
M125.000000,129.000000 
	C83.333344,129.000000 42.166687,129.000000 1.000022,129.000000 
	C1.000015,86.333351 1.000015,43.666706 1.000007,1.000045 
	C73.333298,1.000030 145.666595,1.000030 217.999908,1.000015 
	C217.999939,43.666622 217.999939,86.333244 217.999969,128.999939 
	C187.166672,129.000000 156.333328,129.000000 125.000000,129.000000 
M173.610107,47.491875 
	C183.991394,49.188599 186.401642,52.633537 185.384323,63.253204 
	C185.232498,64.838142 186.939545,67.825546 188.139404,68.023239 
	C189.859070,68.306580 192.735245,67.147064 193.663086,65.682251 
	C197.423828,59.745083 195.003433,49.623245 189.958664,45.345249 
	C182.366486,38.907070 173.203918,36.587387 163.620132,36.490356 
	C141.026978,36.261620 118.459457,36.609173 96.308182,42.145744 
	C74.254311,47.657967 52.016037,52.470768 30.097235,58.463047 
	C22.945032,60.418358 16.412308,64.895317 9.904740,68.740997 
	C8.574924,69.526855 8.626025,72.649483 8.040572,74.694946 
	C10.050236,74.803474 12.329547,75.586411 14.024806,74.908592 
	C23.426521,71.149483 32.478390,66.411171 42.054272,63.221802 
	C51.238346,60.162933 60.874084,58.385578 70.386208,56.404537 
	C83.143341,53.747681 95.916878,51.076752 108.787857,49.088005 
	C119.563454,47.423012 130.486694,46.705536 141.348831,45.610909 
	C151.923080,44.545300 162.506439,43.466190 173.610107,47.491875 
z"/>
<path fill="#0E0E0E" opacity="1.000000" stroke="none" 
	d="
M173.212830,47.409805 
	C162.506439,43.466190 151.923080,44.545300 141.348831,45.610909 
	C130.486694,46.705536 119.563454,47.423012 108.787857,49.088005 
	C95.916878,51.076752 83.143341,53.747681 70.386208,56.404537 
	C60.874084,58.385578 51.238346,60.162933 42.054272,63.221802 
	C32.478390,66.411171 23.426521,71.149483 14.024806,74.908592 
	C12.329547,75.586411 10.050236,74.803474 8.040572,74.694946 
	C8.626025,72.649483 8.574924,69.526855 9.904740,68.740997 
	C16.412308,64.895317 22.945032,60.418358 30.097235,58.463047 
	C52.016037,52.470768 74.254311,47.657967 96.308182,42.145744 
	C118.459457,36.609173 141.026978,36.261620 163.620132,36.490356 
	C173.203918,36.587387 182.366486,38.907070 189.958664,45.345249 
	C195.003433,49.623245 197.423828,59.745083 193.663086,65.682251 
	C192.735245,67.147064 189.859070,68.306580 188.139404,68.023239 
	C186.939545,67.825546 185.232498,64.838142 185.384323,63.253204 
	C186.401642,52.633537 183.991394,49.188599 173.212830,47.409805 
z"/>
</svg>