<svg version="1.1" id="Layer_1" xmlns="http://www.w3.org/2000/svg" xmlns:xlink="http://www.w3.org/1999/xlink" x="0px" y="0px"
	 width="100%" viewBox="0 0 116 106" enable-background="new 0 0 116 106" xml:space="preserve">
<path fill="#FFFFFF" opacity="1.000000" stroke="none" 
	d="
M65.000000,107.000000 
	C43.333332,107.000000 22.166666,107.000000 1.000000,107.000000 
	C1.000000,71.666664 1.000000,36.333332 1.000000,1.000000 
	C39.666668,1.000000 78.333336,1.000000 117.000000,1.000000 
	C117.000000,36.333332 117.000000,71.666664 117.000000,107.000000 
	C99.833336,107.000000 82.666664,107.000000 65.000000,107.000000 
M37.459160,35.278847 
	C39.130192,44.402664 43.608223,49.526249 53.534428,48.689003 
	C61.965061,47.977898 66.542496,44.553528 67.507317,36.295910 
	C68.463524,28.112007 65.862534,24.827063 56.621101,22.942778 
	C54.370171,22.483829 52.000511,22.458214 49.687691,22.479378 
	C42.381199,22.546236 37.925293,26.971300 37.459160,35.278847 
z"/>
<path fill="#0B0B0B" opacity="1.000000" stroke="none" 
	d="
M37.456486,34.877884 
	C37.925293,26.971300 42.381199,22.546236 49.687691,22.479378 
	C52.000511,22.458214 54.370171,22.483829 56.621101,22.942778 
	C65.862534,24.827063 68.463524,28.112007 67.507317,36.295910 
	C66.542496,44.553528 61.965061,47.977898 53.534428,48.689003 
	C43.608223,49.526249 39.130192,44.402664 37.456486,34.877884 
M56.948978,31.743387 
	C55.529449,31.320873 53.939335,30.276726 52.727039,30.609396 
	C50.429882,31.239769 47.391064,32.171471 46.501923,33.916382 
	C45.865299,35.165741 47.767193,39.133472 49.364670,39.753075 
	C51.603687,40.621498 55.196461,40.332470 57.109772,38.980873 
	C58.683582,37.869110 61.156948,34.631561 56.948978,31.743387 
z"/>
<path fill="#E9E9E9" opacity="1.000000" stroke="none" 
	d="
M57.325706,31.882465 
	C61.156948,34.631561 58.683582,37.869110 57.109772,38.980873 
	C55.196461,40.332470 51.603687,40.621498 49.364670,39.753075 
	C47.767193,39.133472 45.865299,35.165741 46.501923,33.916382 
	C47.391064,32.171471 50.429882,31.239769 52.727039,30.609396 
	C53.939335,30.276726 55.529449,31.320873 57.325706,31.882465 
z"/>
</svg>