<svg version="1.1" id="Layer_1" xmlns="http://www.w3.org/2000/svg" xmlns:xlink="http://www.w3.org/1999/xlink" x="0px" y="0px"
	 width="100%" viewBox="0 0 116 106" enable-background="new 0 0 116 106" xml:space="preserve">
<path fill="#FEFEFE" opacity="1.000000" stroke="none" 
	d="
M65.000000,107.000000 
	C43.333332,107.000000 22.166666,107.000000 1.000000,107.000000 
	C1.000000,71.666664 1.000000,36.333332 1.000000,1.000000 
	C39.666668,1.000000 78.333336,1.000000 117.000000,1.000000 
	C117.000000,36.333332 117.000000,71.666664 117.000000,107.000000 
	C99.833336,107.000000 82.666664,107.000000 65.000000,107.000000 
M55.615501,52.355305 
	C60.909542,48.879856 63.855968,42.031345 62.422810,35.518429 
	C61.209270,30.003574 56.375607,28.925383 51.799583,28.007231 
	C49.225353,27.490728 46.517830,27.433784 43.877575,27.492765 
	C37.980812,27.624496 33.049072,32.304611 32.435371,37.792862 
	C31.676319,44.580994 37.312225,52.986301 41.572739,53.270096 
	C45.967087,53.562805 50.428131,52.854336 55.615501,52.355305 
M70.058205,71.467697 
	C73.007462,70.373070 76.054062,69.473412 78.852409,68.076485 
	C79.812706,67.597107 80.152168,65.874054 80.775253,64.719177 
	C79.501129,64.355171 78.085869,63.442661 76.978699,63.727528 
	C73.302544,64.673378 69.688416,65.922729 66.138245,67.284447 
	C53.797974,72.017754 41.461891,76.767105 29.226511,81.760971 
	C27.964558,82.276039 27.386803,84.467430 26.491573,85.880997 
	C28.258980,85.924088 30.218319,86.492218 31.763481,85.927353 
	C44.329666,81.333626 56.818344,76.527863 70.058205,71.467697 
z"/>
<path fill="#0B0B0B" opacity="1.000000" stroke="none" 
	d="
M55.237747,52.469597 
	C50.428131,52.854336 45.967087,53.562805 41.572739,53.270096 
	C37.312225,52.986301 31.676319,44.580994 32.435371,37.792862 
	C33.049072,32.304611 37.980812,27.624496 43.877575,27.492765 
	C46.517830,27.433784 49.225353,27.490728 51.799583,28.007231 
	C56.375607,28.925383 61.209270,30.003574 62.422810,35.518429 
	C63.855968,42.031345 60.909542,48.879856 55.237747,52.469597 
M41.125896,38.837517 
	C41.428852,42.963333 43.068970,45.537003 47.763351,45.603302 
	C53.142807,45.679272 53.665287,42.050449 54.311581,38.272354 
	C47.951679,34.464260 44.954113,34.472530 41.125896,38.837517 
z"/>
<path fill="#0F0F0F" opacity="1.000000" stroke="none" 
	d="
M69.694412,71.627182 
	C56.818344,76.527863 44.329666,81.333626 31.763481,85.927353 
	C30.218319,86.492218 28.258980,85.924088 26.491573,85.880997 
	C27.386803,84.467430 27.964558,82.276039 29.226511,81.760971 
	C41.461891,76.767105 53.797974,72.017754 66.138245,67.284447 
	C69.688416,65.922729 73.302544,64.673378 76.978699,63.727528 
	C78.085869,63.442661 79.501129,64.355171 80.775253,64.719177 
	C80.152168,65.874054 79.812706,67.597107 78.852409,68.076485 
	C76.054062,69.473412 73.007462,70.373070 69.694412,71.627182 
z"/>
<path fill="#E9E9E9" opacity="1.000000" stroke="none" 
	d="
M41.332237,38.513474 
	C44.954113,34.472530 47.951679,34.464260 54.311581,38.272354 
	C53.665287,42.050449 53.142807,45.679272 47.763351,45.603302 
	C43.068970,45.537003 41.428852,42.963333 41.332237,38.513474 
z"/>
</svg>