<svg version="1.1" id="Layer_1" xmlns="http://www.w3.org/2000/svg" xmlns:xlink="http://www.w3.org/1999/xlink" x="0px" y="0px"
	 width="100%" viewBox="0 0 116 106" enable-background="new 0 0 116 106" xml:space="preserve">
<path fill="#FFFFFF" opacity="1.000000" stroke="none" 
	d="
M64.000000,107.000000 
	C42.666668,107.000000 21.833334,107.000000 1.000000,107.000000 
	C1.000000,71.666664 1.000000,36.333332 1.000000,1.000000 
	C39.666668,1.000000 78.333336,1.000000 117.000000,1.000000 
	C117.000000,36.333332 117.000000,71.666664 117.000000,107.000000 
	C99.500000,107.000000 82.000000,107.000000 64.000000,107.000000 
M32.644676,36.311356 
	C31.834530,52.382267 42.447845,56.555580 55.304787,52.333389 
	C62.855881,49.853619 65.300194,35.642914 59.411461,30.897642 
	C51.480087,24.506367 38.250252,26.821993 32.644676,36.311356 
M44.990700,74.472656 
	C46.301609,74.395729 48.188072,74.838387 48.814987,74.143959 
	C50.659771,72.100517 52.530418,69.763222 53.293400,67.212639 
	C53.609489,66.155998 51.159252,63.035126 49.926960,63.012234 
	C47.443958,62.966103 43.934143,63.663990 42.663094,65.390915 
	C40.639027,68.140968 40.280014,71.946587 44.990700,74.472656 
z"/>
<path fill="#0B0B0B" opacity="1.000000" stroke="none" 
	d="
M32.736492,35.930931 
	C38.250252,26.821993 51.480087,24.506367 59.411461,30.897642 
	C65.300194,35.642914 62.855881,49.853619 55.304787,52.333389 
	C42.447845,56.555580 31.834530,52.382267 32.736492,35.930931 
M46.596626,35.458126 
	C43.533295,35.365337 40.967842,36.744759 41.183651,39.796581 
	C41.407146,42.957073 43.195599,45.475872 47.262486,45.623878 
	C52.777023,45.824566 53.742218,42.393856 54.378460,37.679283 
	C51.987919,36.921619 49.685852,36.192001 46.596626,35.458126 
z"/>
<path fill="#0D0D0D" opacity="1.000000" stroke="none" 
	d="
M44.627132,74.380020 
	C40.280014,71.946587 40.639027,68.140968 42.663094,65.390915 
	C43.934143,63.663990 47.443958,62.966103 49.926960,63.012234 
	C51.159252,63.035126 53.609489,66.155998 53.293400,67.212639 
	C52.530418,69.763222 50.659771,72.100517 48.814987,74.143959 
	C48.188072,74.838387 46.301609,74.395729 44.627132,74.380020 
z"/>
<path fill="#E9E9E9" opacity="1.000000" stroke="none" 
	d="
M46.990204,35.460251 
	C49.685852,36.192001 51.987919,36.921619 54.378460,37.679283 
	C53.742218,42.393856 52.777023,45.824566 47.262486,45.623878 
	C43.195599,45.475872 41.407146,42.957073 41.183651,39.796581 
	C40.967842,36.744759 43.533295,35.365337 46.990204,35.460251 
z"/>
</svg>