<svg version="1.1" id="Layer_1" xmlns="http://www.w3.org/2000/svg" xmlns:xlink="http://www.w3.org/1999/xlink" x="0px" y="0px"
	 width="100%" viewBox="0 0 112 96" enable-background="new 0 0 112 96" xml:space="preserve">
<path fill="#000000" opacity="1.000000" stroke="none" 
	d="
M61.832970,18.661221 
	C72.123253,19.803503 80.450134,23.512743 85.803001,32.372963 
	C96.043762,49.323719 83.869095,70.390259 64.095016,72.333031 
	C45.900806,74.120575 31.054789,61.172451 31.645508,44.200275 
	C32.140789,29.970022 45.130787,18.811798 61.832970,18.661221 
M40.979240,34.596409 
	C33.205441,48.641293 40.967216,64.001312 56.757755,65.786034 
	C57.894325,64.743935 57.587288,63.328587 57.610409,62.048550 
	C57.688473,57.726788 57.649342,53.403011 57.710293,49.080784 
	C57.736965,47.189186 58.525032,45.786678 60.660881,45.894955 
	C62.483982,45.987381 63.208836,47.266335 63.274765,48.944931 
	C63.339993,50.605515 63.248322,52.274593 63.362778,53.930454 
	C63.641563,57.963711 62.639019,62.104710 64.019875,66.080170 
	C74.594978,64.145561 82.658707,56.266140 83.604218,47.208099 
	C84.502815,38.599403 78.114677,29.434269 68.591393,26.004555 
	C57.635765,22.058992 48.834122,25.758282 40.979240,34.596409 
z"/>
</svg>