<svg version="1.1" id="Layer_1" xmlns="http://www.w3.org/2000/svg" xmlns:xlink="http://www.w3.org/1999/xlink" x="0px" y="0px"
	 width="100%" viewBox="0 0 128 128" enable-background="new 0 0 128 128" xml:space="preserve">
<path fill="#000000" opacity="1.000000" stroke="none" 
	d="
M81.660271,50.622620 
	C75.145401,59.008472 68.855049,67.115929 62.570347,75.227760 
	C61.961830,76.013184 61.461376,76.894577 60.784729,77.612663 
	C58.812340,79.705818 56.208199,80.160568 54.018997,78.628876 
	C51.793781,77.071968 52.202019,74.384048 53.535755,72.336143 
	C55.975136,68.590561 58.633991,64.979065 61.344280,61.420544 
	C67.763763,52.991978 74.262840,44.623985 80.743164,36.241882 
	C81.349419,35.457706 81.970985,34.651619 82.723969,34.021160 
	C84.704247,32.363125 87.114487,31.898859 89.129021,33.456745 
	C91.092941,34.975494 90.792900,37.442486 89.570648,39.344933 
	C87.154755,43.105274 84.463661,46.688801 81.660271,50.622620 
z"/>
</svg>