<svg version="1.1" id="Layer_1" xmlns="http://www.w3.org/2000/svg" xmlns:xlink="http://www.w3.org/1999/xlink" x="0px" y="0px"
	 width="100%" viewBox="0 0 141 128" enable-background="new 0 0 141 128" xml:space="preserve">
<path fill="#FFFFFF" opacity="1.000000" stroke="none" 
	d="
M73.000000,129.000000 
	C48.666668,129.000000 24.833334,129.000000 1.000000,129.000000 
	C1.000000,86.333336 1.000000,43.666668 1.000000,1.000000 
	C48.000000,1.000000 95.000000,1.000000 142.000000,1.000000 
	C142.000000,43.666668 142.000000,86.333336 142.000000,129.000000 
	C119.166664,129.000000 96.333336,129.000000 73.000000,129.000000 
M26.648642,59.388905 
	C22.372337,59.268852 21.961531,59.695133 22.945978,63.853668 
	C22.979650,65.232002 23.013323,66.610344 22.537243,68.440041 
	C23.112894,72.527176 26.312124,74.470108 29.673235,72.390114 
	C35.837158,68.575623 41.521278,63.891899 49.008636,62.715935 
	C49.563461,62.628796 49.971546,61.837051 50.538315,61.554031 
	C52.376457,60.636143 54.183170,59.325932 56.134399,59.024818 
	C62.320915,58.070118 69.223198,58.908432 74.606796,56.394196 
	C80.017403,53.867348 85.095436,53.739563 90.362267,54.088177 
	C93.757454,54.312908 97.224800,55.921204 100.267555,57.614349 
	C101.290710,58.183685 101.166412,60.915913 101.458069,62.677536 
	C102.025406,66.104233 103.006691,68.960472 107.973503,67.596642 
	C108.492081,67.635612 109.010651,67.674583 110.334236,67.877388 
	C114.118340,67.983772 114.865845,65.328110 115.241272,62.408352 
	C115.802124,58.046539 117.619263,53.438404 112.610146,49.410313 
	C111.802086,45.499382 109.373184,43.198597 105.424225,43.139290 
	C97.182419,43.015499 88.869698,42.513195 80.706467,43.346054 
	C64.946411,44.953983 49.131512,46.848095 34.577820,54.521416 
	C31.652828,55.254745 26.517511,52.948399 27.622486,59.651497 
	C27.622486,59.651497 27.388109,59.759987 26.648642,59.388905 
z"/>
<path fill="#0D0D0D" opacity="1.000000" stroke="none" 
	d="
M109.529228,67.713547 
	C109.010651,67.674583 108.492081,67.635612 107.477753,67.378052 
	C106.107254,64.336517 104.463600,61.499828 104.513733,58.693394 
	C104.627037,52.349743 104.213173,50.939529 97.900490,51.273506 
	C87.367943,51.830734 76.839775,52.916805 66.385452,54.337330 
	C60.208580,55.176640 53.918568,56.428356 48.150341,58.693676 
	C41.887051,61.153408 36.113205,64.905670 30.240921,68.293633 
	C27.630209,69.799858 25.360836,70.156822 23.046997,67.988678 
	C23.013323,66.610344 22.979650,65.232002 23.329475,63.333263 
	C24.938019,61.795235 26.163063,60.777611 27.388109,59.759987 
	C27.388109,59.759987 27.622486,59.651497 28.008461,59.439865 
	C30.603445,57.848434 32.812454,56.468636 35.021461,55.088837 
	C49.131512,46.848095 64.946411,44.953983 80.706467,43.346054 
	C88.869698,42.513195 97.182419,43.015499 105.424225,43.139290 
	C109.373184,43.198597 111.802086,45.499382 112.814758,50.105667 
	C113.831421,56.846195 114.661148,62.895008 109.529228,67.713547 
z"/>
<path fill="#D5D5D5" opacity="1.000000" stroke="none" 
	d="
M22.792120,68.214355 
	C25.360836,70.156822 27.630209,69.799858 30.240921,68.293633 
	C36.113205,64.905670 41.887051,61.153408 48.150341,58.693676 
	C53.918568,56.428356 60.208580,55.176640 66.385452,54.337330 
	C76.839775,52.916805 87.367943,51.830734 97.900490,51.273506 
	C104.213173,50.939529 104.627037,52.349743 104.513733,58.693394 
	C104.463600,61.499828 106.107254,64.336517 107.223083,67.438507 
	C103.006691,68.960472 102.025406,66.104233 101.458069,62.677536 
	C101.166412,60.915913 101.290710,58.183685 100.267555,57.614349 
	C97.224800,55.921204 93.757454,54.312908 90.362267,54.088177 
	C85.095436,53.739563 80.017403,53.867348 74.606796,56.394196 
	C69.223198,58.908432 62.320915,58.070118 56.134399,59.024818 
	C54.183170,59.325932 52.376457,60.636143 50.538315,61.554031 
	C49.971546,61.837051 49.563461,62.628796 49.008636,62.715935 
	C41.521278,63.891899 35.837158,68.575623 29.673235,72.390114 
	C26.312124,74.470108 23.112894,72.527176 22.792120,68.214355 
z"/>
<path fill="#D5D5D5" opacity="1.000000" stroke="none" 
	d="
M109.931732,67.795471 
	C114.661148,62.895008 113.831421,56.846195 113.016449,50.398701 
	C117.619263,53.438404 115.802124,58.046539 115.241272,62.408352 
	C114.865845,65.328110 114.118340,67.983772 109.931732,67.795471 
z"/>
<path fill="#D5D5D5" opacity="1.000000" stroke="none" 
	d="
M34.799641,54.805126 
	C32.812454,56.468636 30.603445,57.848434 28.092949,59.342205 
	C26.517511,52.948399 31.652828,55.254745 34.799641,54.805126 
z"/>
<path fill="#D5D5D5" opacity="1.000000" stroke="none" 
	d="
M27.018375,59.574448 
	C26.163063,60.777611 24.938019,61.795235 23.424915,62.922901 
	C21.961531,59.695133 22.372337,59.268852 27.018375,59.574448 
z"/>
</svg>