<svg version="1.1" id="Layer_1" xmlns="http://www.w3.org/2000/svg" xmlns:xlink="http://www.w3.org/1999/xlink" x="0px" y="0px"
	 width="100%" viewBox="0 0 214 121" enable-background="new 0 0 214 121" xml:space="preserve">
<path fill="#FEFEFE" opacity="1.000000" stroke="none" 
	d="
M140.000000,122.000000 
	C93.333344,122.000000 47.166695,122.000000 1.000031,122.000000 
	C1.000021,81.666695 1.000021,41.333385 1.000010,1.000058 
	C72.333290,1.000039 143.666580,1.000039 214.999908,1.000019 
	C214.999939,41.333275 214.999939,81.666550 214.999969,121.999908 
	C190.166672,122.000000 165.333328,122.000000 140.000000,122.000000 
M16.585096,65.375053 
	C19.595636,70.398979 24.470608,69.898918 29.168867,69.828491 
	C29.168867,69.828491 29.310598,69.690681 29.232786,70.456757 
	C31.713793,71.629707 34.091213,73.375076 36.699081,73.847000 
	C41.059433,74.636040 45.566963,74.611740 50.103134,75.730659 
	C52.851437,78.621056 66.195618,79.099709 68.662994,76.352707 
	C68.947289,76.036186 68.887413,75.410522 69.824699,74.903038 
	C71.221138,74.911041 72.617577,74.919044 74.067047,75.617889 
	C74.826599,76.301590 75.586143,76.985298 76.345695,77.668999 
	C76.892616,76.755646 77.439529,75.842293 78.827644,74.880653 
	C84.436722,74.583176 90.057281,74.411911 95.647209,73.903816 
	C97.136147,73.768478 98.531250,72.600998 100.857246,71.892036 
	C103.979469,71.281723 107.092697,70.620140 110.225639,70.070984 
	C118.663704,68.591927 127.113861,67.181900 135.552063,65.703659 
	C141.722015,64.622780 147.964050,63.809158 154.025482,62.285656 
	C164.082031,59.758007 174.019211,56.755379 184.074097,54.664661 
	C185.016800,55.380604 186.712982,56.794758 186.791565,56.709972 
	C188.576706,54.783474 190.184906,52.693020 192.343307,50.138294 
	C196.849854,49.207916 199.499603,46.340534 198.219742,43.400261 
	C196.462051,39.362263 193.463791,40.422783 190.288345,41.730869 
	C185.633575,43.648346 180.945908,45.616577 176.097626,46.907166 
	C165.097610,49.835323 154.029037,52.535084 142.914062,54.991592 
	C135.830841,56.557045 128.607956,57.483490 121.459877,58.764526 
	C114.027100,60.096588 106.640083,62.456852 99.178368,62.701794 
	C80.743744,63.306942 62.274971,63.143757 43.826660,62.856644 
	C39.537441,62.789890 35.275089,60.997047 31.006617,59.221539 
	C26.674784,55.382267 27.053240,49.942677 26.133680,44.938244 
	C25.958401,43.984325 25.839376,42.879776 25.272936,42.191654 
	C24.943295,41.791199 23.775736,42.080486 22.161657,41.922852 
	C20.789814,41.995811 19.417973,42.068771 17.604368,41.538784 
	C13.057323,41.309551 11.124590,45.361179 13.064844,51.911377 
	C13.175367,54.590492 13.285891,57.269604 12.741457,60.254726 
	C11.382227,63.529766 13.531256,64.365547 16.585096,65.375053 
z"/>
<path fill="#0E0E0E" opacity="1.000000" stroke="none" 
	d="
M184.006668,53.952835 
	C174.019211,56.755379 164.082031,59.758007 154.025482,62.285656 
	C147.964050,63.809158 141.722015,64.622780 135.552063,65.703659 
	C127.113861,67.181900 118.663704,68.591927 110.225639,70.070984 
	C107.092697,70.620140 103.979469,71.281723 99.962479,71.766373 
	C75.810890,71.149818 52.458221,74.087784 29.310598,69.690681 
	C29.310598,69.690681 29.168867,69.828491 29.014050,69.481827 
	C26.896570,68.128792 24.933912,67.122414 22.843632,65.802010 
	C16.019066,60.936611 14.821135,54.369484 16.017902,46.636360 
	C16.756643,44.923058 17.401386,43.532394 18.046127,42.141731 
	C19.417973,42.068771 20.789814,41.995811 22.735031,42.335617 
	C23.798191,45.078266 24.845510,47.452393 24.664854,49.729076 
	C24.254393,54.901806 26.364662,58.131771 31.000374,59.998425 
	C35.275089,60.997047 39.537441,62.789890 43.826660,62.856644 
	C62.274971,63.143757 80.743744,63.306942 99.178368,62.701794 
	C106.640083,62.456852 114.027100,60.096588 121.459877,58.764526 
	C128.607956,57.483490 135.830841,56.557045 142.914062,54.991592 
	C154.029037,52.535084 165.097610,49.835323 176.097626,46.907166 
	C180.945908,45.616577 185.633575,43.648346 190.288345,41.730869 
	C193.463791,40.422783 196.462051,39.362263 198.219742,43.400261 
	C199.499603,46.340534 196.849854,49.207916 191.740479,50.484642 
	C188.760666,51.871605 186.383667,52.912220 184.006668,53.952835 
z"/>
<path fill="#CECECE" opacity="1.000000" stroke="none" 
	d="
M29.271692,70.073715 
	C52.458221,74.087784 75.810890,71.149818 99.518570,71.774055 
	C98.531250,72.600998 97.136147,73.768478 95.647209,73.903816 
	C90.057281,74.411911 84.436722,74.583176 78.009979,74.897644 
	C76.132874,74.918777 75.073448,74.922913 74.014015,74.927055 
	C72.617577,74.919044 71.221138,74.911041 68.938972,74.909302 
	C62.039677,74.920303 56.026112,74.925041 50.012543,74.929794 
	C45.566963,74.611740 41.059433,74.636040 36.699081,73.847000 
	C34.091213,73.375076 31.713793,71.629707 29.271692,70.073715 
z"/>
<path fill="#979797" opacity="1.000000" stroke="none" 
	d="
M15.923903,46.958996 
	C14.821135,54.369484 16.019066,60.936611 22.654366,66.036484 
	C20.435055,65.322945 18.277390,64.060898 15.939049,62.574097 
	C14.971051,61.549137 14.183733,60.748928 13.396414,59.948719 
	C13.285891,57.269604 13.175367,54.590492 13.323601,51.232353 
	C14.362873,49.355221 15.143388,48.157108 15.923903,46.958996 
z"/>
<path fill="#F8F8F8" opacity="1.000000" stroke="none" 
	d="
M50.057838,75.330223 
	C56.026112,74.925041 62.039677,74.920303 68.520180,74.921875 
	C68.887413,75.410522 68.947289,76.036186 68.662994,76.352707 
	C66.195618,79.099709 52.851437,78.621056 50.057838,75.330223 
z"/>
<path fill="#DDDDDD" opacity="1.000000" stroke="none" 
	d="
M31.003494,59.609982 
	C26.364662,58.131771 24.254393,54.901806 24.664854,49.729076 
	C24.845510,47.452393 23.798191,45.078266 23.146801,42.403900 
	C23.775736,42.080486 24.943295,41.791199 25.272936,42.191654 
	C25.839376,42.879776 25.958401,43.984325 26.133680,44.938244 
	C27.053240,49.942677 26.674784,55.382267 31.003494,59.609982 
z"/>
<path fill="#CECECE" opacity="1.000000" stroke="none" 
	d="
M16.119726,62.798851 
	C18.277390,64.060898 20.435055,65.322945 22.781986,66.350510 
	C24.933912,67.122414 26.896570,68.128792 29.059523,69.394073 
	C24.470608,69.898918 19.595636,70.398979 16.300499,64.810097 
	C16.050510,63.763042 16.085117,63.280949 16.119726,62.798851 
z"/>
<path fill="#DDDDDD" opacity="1.000000" stroke="none" 
	d="
M16.017902,46.636360 
	C15.143388,48.157108 14.362873,49.355221 13.333630,50.783184 
	C11.124590,45.361179 13.057323,41.309551 17.825249,41.840256 
	C17.401386,43.532394 16.756643,44.923058 16.017902,46.636360 
z"/>
<path fill="#E4E4E4" opacity="1.000000" stroke="none" 
	d="
M184.040375,54.308746 
	C186.383667,52.912220 188.760666,51.871605 191.481964,50.732140 
	C190.184906,52.693020 188.576706,54.783474 186.791565,56.709972 
	C186.712982,56.794758 185.016800,55.380604 184.040375,54.308746 
z"/>
<path fill="#DDDDDD" opacity="1.000000" stroke="none" 
	d="
M15.939049,62.574097 
	C16.085117,63.280949 16.050510,63.763042 16.016788,64.605942 
	C13.531256,64.365547 11.382227,63.529766 13.068935,60.101723 
	C14.183733,60.748928 14.971051,61.549137 15.939049,62.574097 
z"/>
<path fill="#F8F8F8" opacity="1.000000" stroke="none" 
	d="
M74.040527,75.272476 
	C75.073448,74.922913 76.132874,74.918777 77.589378,74.921791 
	C77.439529,75.842293 76.892616,76.755646 76.345695,77.668999 
	C75.586143,76.985298 74.826599,76.301590 74.040527,75.272476 
z"/>
</svg>