<svg version="1.1" id="Layer_1" xmlns="http://www.w3.org/2000/svg" xmlns:xlink="http://www.w3.org/1999/xlink" x="0px" y="0px"
	 width="100%" viewBox="0 0 209 121" enable-background="new 0 0 209 121" xml:space="preserve">
<path fill="#FFFFFF" opacity="1.000000" stroke="none" 
	d="
M141.000000,122.000000 
	C94.000015,122.000000 47.500027,122.000000 1.000031,122.000000 
	C1.000021,81.666695 1.000021,41.333385 1.000010,1.000058 
	C70.666618,1.000039 140.333237,1.000039 209.999908,1.000019 
	C209.999939,41.333275 209.999939,81.666550 209.999969,121.999908 
	C187.166672,122.000000 164.333328,122.000000 141.000000,122.000000 
M86.500000,51.000027 
	C64.862419,51.000034 43.224815,50.988247 21.587261,51.012909 
	C18.381945,51.016560 15.104330,51.148903 15.011977,55.613438 
	C14.910362,60.525677 18.701427,58.938789 21.124893,58.943550 
	C61.403950,59.022739 101.683205,58.999981 141.962418,58.999973 
	C154.612091,58.999973 167.261871,59.030319 179.911331,58.978062 
	C182.985214,58.965363 185.933624,58.593166 186.015533,54.387768 
	C186.103317,49.880867 182.787430,51.034409 180.375153,51.030781 
	C149.416824,50.984215 118.458397,51.000027 86.500000,51.000027 
z"/>
<path fill="#000000" opacity="1.000000" stroke="none" 
	d="
M87.000000,51.000027 
	C118.458397,51.000027 149.416824,50.984215 180.375153,51.030781 
	C182.787430,51.034409 186.103317,49.880867 186.015533,54.387768 
	C185.933624,58.593166 182.985214,58.965363 179.911331,58.978062 
	C167.261871,59.030319 154.612091,58.999973 141.962418,58.999973 
	C101.683205,58.999981 61.403950,59.022739 21.124893,58.943550 
	C18.701427,58.938789 14.910362,60.525677 15.011977,55.613438 
	C15.104330,51.148903 18.381945,51.016560 21.587261,51.012909 
	C43.224815,50.988247 64.862419,51.000034 87.000000,51.000027 
z"/>
</svg>