<svg version="1.1" id="Layer_1" xmlns="http://www.w3.org/2000/svg" xmlns:xlink="http://www.w3.org/1999/xlink" x="0px" y="0px"
	 width="100%" viewBox="0 0 141 121" enable-background="new 0 0 141 121" xml:space="preserve">
<path fill="#FFFFFF" opacity="1.000000" stroke="none" 
	d="
M83.000000,122.000000 
	C55.333332,122.000000 28.166666,122.000000 1.000000,122.000000 
	C1.000000,81.666664 1.000000,41.333332 1.000000,1.000000 
	C48.000000,1.000000 95.000000,1.000000 142.000000,1.000000 
	C142.000000,41.333332 142.000000,81.666664 142.000000,122.000000 
	C122.500000,122.000000 103.000000,122.000000 83.000000,122.000000 
M73.500000,50.000000 
	C68.342018,50.000000 63.184036,49.999966 58.026054,50.000008 
	C47.210926,50.000092 36.395794,50.004787 25.580673,49.997581 
	C22.273710,49.995380 19.437494,51.507214 19.484324,54.746838 
	C19.531502,58.010658 22.653681,58.061111 25.481009,58.049042 
	C46.611717,57.958839 67.742989,58.000008 88.874084,58.000000 
	C96.860641,57.999996 104.851982,57.836517 112.831703,58.070080 
	C116.720230,58.183895 118.189148,55.745693 116.707314,53.320854 
	C115.556221,51.437225 111.977417,50.214588 109.437164,50.143410 
	C97.799240,49.817341 86.147064,50.000008 73.500000,50.000000 
z"/>
<path fill="#000000" opacity="1.000000" stroke="none" 
	d="
M74.000000,50.000000 
	C86.147064,50.000008 97.799240,49.817341 109.437164,50.143410 
	C111.977417,50.214588 115.556221,51.437225 116.707314,53.320854 
	C118.189148,55.745693 116.720230,58.183895 112.831703,58.070080 
	C104.851982,57.836517 96.860641,57.999996 88.874084,58.000000 
	C67.742989,58.000008 46.611717,57.958839 25.481009,58.049042 
	C22.653681,58.061111 19.531502,58.010658 19.484324,54.746838 
	C19.437494,51.507214 22.273710,49.995380 25.580673,49.997581 
	C36.395794,50.004787 47.210926,50.000092 58.026054,50.000008 
	C63.184036,49.999966 68.342018,50.000000 74.000000,50.000000 
z"/>
</svg>