<svg version="1.1" id="Layer_1" xmlns="http://www.w3.org/2000/svg" xmlns:xlink="http://www.w3.org/1999/xlink" x="0px" y="0px"
	 width="100%" viewBox="0 0 194 138" enable-background="new 0 0 194 138" xml:space="preserve">
<path fill="#FFFFFF" opacity="1.000000" stroke="none" 
	d="
M113.000000,139.000000 
	C75.333336,139.000000 38.166676,139.000000 1.000010,139.000000 
	C1.000007,93.000008 1.000007,47.000019 1.000003,1.000022 
	C65.666649,1.000015 130.333298,1.000015 194.999969,1.000007 
	C194.999969,46.999973 194.999969,92.999947 194.999985,138.999969 
	C167.833328,139.000000 140.666672,139.000000 113.000000,139.000000 
M145.724579,89.154099 
	C146.189362,89.042450 146.654160,88.930809 147.927032,88.938118 
	C150.232178,89.389877 152.537308,89.841629 154.983398,90.991158 
	C157.803268,95.740288 168.529083,97.714340 175.770920,94.920052 
	C176.827438,94.980179 177.883972,95.040298 179.073456,95.740051 
	C180.494232,98.953865 181.961563,97.242050 183.549149,95.848228 
	C186.174347,93.543427 187.259781,90.314827 184.920441,87.983185 
	C181.809021,84.882034 178.943161,80.982239 173.092682,81.810966 
	C169.404510,82.333412 164.567184,81.780472 161.795074,79.672195 
	C159.232971,77.723633 157.087509,77.241150 154.311050,77.046387 
	C149.855011,76.733810 143.908936,77.887817 141.281693,75.483536 
	C136.149078,70.786522 130.737534,72.775375 125.430862,71.957649 
	C123.050896,71.590912 120.613686,70.996727 118.442543,69.988632 
	C112.483429,67.221764 106.445152,65.999496 99.271416,67.892830 
	C98.171341,67.616882 97.071266,67.340927 95.899498,66.333427 
	C92.674339,61.752457 86.164383,60.445366 78.265846,62.904541 
	C77.522263,62.847404 76.778679,62.790264 75.900864,62.083294 
	C72.481155,57.540398 67.838928,56.635735 62.411449,56.839771 
	C59.499931,56.949226 55.986263,56.306713 53.695740,54.671124 
	C47.920349,50.547108 42.055893,51.741367 35.265572,52.921394 
	C34.166042,52.638950 33.066513,52.356506 31.953768,51.302719 
	C31.444098,46.787952 28.285975,46.813606 24.102749,47.127781 
	C22.739237,47.066471 21.375727,47.005161 19.986607,46.197041 
	C19.148632,42.716534 16.720306,42.607380 14.019465,43.568073 
	C12.143003,44.235535 10.212776,45.167519 11.434417,47.982109 
	C10.977552,48.328255 10.520688,48.674404 9.300839,49.123405 
	C8.908368,51.067623 8.515896,53.011837 7.549027,55.365341 
	C7.335746,61.025684 12.298458,59.510563 15.986546,60.876053 
	C18.035454,60.470367 20.084362,60.064682 22.763193,59.490997 
	C23.820902,59.709515 24.878611,59.928032 26.035929,60.849560 
	C27.353998,64.720543 30.169035,66.055336 34.101337,65.936684 
	C38.984703,65.789345 43.768734,65.371780 47.822781,69.592690 
	C50.304825,72.176903 60.166843,71.400063 63.673912,69.321007 
	C64.789948,69.533844 65.905983,69.746681 67.051918,70.678741 
	C70.450089,75.503098 75.620811,77.019394 82.829178,75.058380 
	C83.331139,74.894287 83.833099,74.730202 85.067711,74.653793 
	C86.032005,74.829071 86.996307,75.004341 87.966560,75.907043 
	C90.059357,80.150421 94.294807,81.713142 99.908783,79.988762 
	C103.613411,80.314766 107.318039,80.640778 111.093460,81.710861 
	C113.620049,85.239769 119.284821,86.668846 124.887230,84.985260 
	C126.350845,84.820457 127.814461,84.655655 130.031082,84.622108 
	C131.780289,84.915222 133.529495,85.208336 135.155624,86.289604 
	C136.456512,90.322937 139.260452,91.142799 143.574249,89.954430 
	C144.051224,89.694969 144.528183,89.435509 145.724579,89.154099 
z"/>
<path fill="#010101" opacity="1.000000" stroke="none" 
	d="
M10.063824,49.020554 
	C10.520688,48.674404 10.977552,48.328255 12.034636,47.949299 
	C13.088866,47.872448 13.542878,47.828411 14.350258,47.956680 
	C18.796181,49.103199 22.888735,50.077408 27.160622,51.393932 
	C28.882298,51.848854 30.424643,51.961456 31.966986,52.074062 
	C33.066513,52.356506 34.166042,52.638950 35.804352,53.320896 
	C49.573784,56.724640 62.804440,59.728882 76.035095,62.733124 
	C76.778679,62.790264 77.522263,62.847404 78.807358,63.280338 
	C84.889641,64.792412 90.430412,65.928688 95.971191,67.064972 
	C97.071266,67.340927 98.171341,67.616882 99.806381,68.281853 
	C101.162682,68.755692 102.005127,68.750824 102.802307,68.938354 
	C125.860809,74.363091 148.928116,79.751839 171.953949,85.312263 
	C175.117569,86.076233 178.071518,87.708549 181.053833,89.331680 
	C180.040543,93.163132 177.710663,92.019516 175.450043,91.480705 
	C161.149033,88.072075 146.851166,84.647484 132.518494,81.376175 
	C128.383560,80.432419 124.137497,79.975601 119.597755,79.118973 
	C118.260925,79.109253 117.268715,79.276093 116.341286,79.238457 
	C116.406059,79.033981 116.219666,78.647614 116.188721,78.364868 
	C115.314270,78.123711 114.470757,78.165283 113.422729,78.332054 
	C113.218208,78.457253 112.994499,78.881454 113.013489,78.577011 
	C112.884163,78.133453 112.735847,77.994339 112.475830,77.552956 
	C107.214119,75.924393 102.064110,74.598091 96.594818,73.223206 
	C95.845245,73.156662 95.414955,73.138702 94.774948,72.797516 
	C78.403419,68.902946 62.213619,65.452332 46.090412,61.714466 
	C36.591175,59.512241 27.197565,56.854420 17.362740,54.367943 
	C14.199418,53.171108 9.514632,54.496548 10.063824,49.020554 
z"/>
<path fill="#CECECE" opacity="1.000000" stroke="none" 
	d="
M181.122528,88.938843 
	C178.071518,87.708549 175.117569,86.076233 171.953949,85.312263 
	C148.928116,79.751839 125.860809,74.363091 102.802307,68.938354 
	C102.005127,68.750824 101.162682,68.755692 100.174698,68.313980 
	C106.445152,65.999496 112.483429,67.221764 118.442543,69.988632 
	C120.613686,70.996727 123.050896,71.590912 125.430862,71.957649 
	C130.737534,72.775375 136.149078,70.786522 141.281693,75.483536 
	C143.908936,77.887817 149.855011,76.733810 154.311050,77.046387 
	C157.087509,77.241150 159.232971,77.723633 161.795074,79.672195 
	C164.567184,81.780472 169.404510,82.333412 173.092682,81.810966 
	C178.943161,80.982239 181.809021,84.882034 184.920441,87.983185 
	C187.259781,90.314827 186.174347,93.543427 183.549149,95.848228 
	C181.961563,97.242050 180.494232,98.953865 179.350464,95.304253 
	C181.981018,93.359665 185.312424,92.097435 181.122528,88.938843 
z"/>
<path fill="#6D6D6D" opacity="1.000000" stroke="none" 
	d="
M17.756451,54.401501 
	C27.197565,56.854420 36.591175,59.512241 46.090412,61.714466 
	C62.213619,65.452332 78.403419,68.902946 94.790833,73.091087 
	C95.004547,74.098602 94.992668,74.489319 94.627747,74.899612 
	C93.818878,75.027351 93.363045,75.135521 92.502724,75.140610 
	C90.719032,75.084885 89.339813,75.132248 87.960602,75.179611 
	C86.996307,75.004341 86.032005,74.829071 84.571136,74.296478 
	C80.698006,72.775650 77.321449,71.612144 73.522430,70.349182 
	C71.073982,70.153000 69.047997,70.056259 67.022018,69.959518 
	C65.905983,69.746681 64.789948,69.533844 63.222374,69.022095 
	C62.174644,68.497726 61.578453,68.272285 60.833080,67.681778 
	C57.446541,66.944069 54.209183,66.571419 50.658875,66.012421 
	C46.896915,64.908028 43.447906,63.989990 39.800140,62.771336 
	C36.983753,61.781178 34.366131,61.091633 31.339809,60.317665 
	C29.266178,60.204338 27.601250,60.175442 25.936319,60.146545 
	C24.878611,59.928032 23.820902,59.709515 22.201885,59.266464 
	C20.345869,57.495121 19.051159,55.948311 17.756451,54.401501 
z"/>
<path fill="#888888" opacity="1.000000" stroke="none" 
	d="
M181.053833,89.331680 
	C185.312424,92.097435 181.981018,93.359665 179.283997,94.984436 
	C177.883972,95.040298 176.827438,94.980179 175.152374,94.525543 
	C167.970032,92.851822 161.406250,91.572601 154.842453,90.293388 
	C152.537308,89.841629 150.232178,89.389877 147.493515,88.600845 
	C146.357651,88.098831 145.655289,87.934090 144.643433,87.766830 
	C143.925003,87.705940 143.516098,87.647575 143.036972,87.309021 
	C142.298157,86.719940 141.629578,86.411034 140.608170,86.032486 
	C139.541992,85.907455 138.828644,85.852066 137.763824,85.725021 
	C136.701141,85.602730 135.989929,85.552094 135.278702,85.501450 
	C133.529495,85.208336 131.780289,84.915222 129.493683,84.248901 
	C127.322937,83.520660 125.689583,83.165634 123.854385,82.587936 
	C123.074570,82.287064 122.496597,82.208862 121.738754,81.887108 
	C120.986305,81.489815 120.413719,81.336060 119.876083,80.711128 
	C119.921478,79.925140 119.931931,79.610336 119.942383,79.295532 
	C124.137497,79.975601 128.383560,80.432419 132.518494,81.376175 
	C146.851166,84.647484 161.149033,88.072075 175.450043,91.480705 
	C177.710663,92.019516 180.040543,93.163132 181.053833,89.331680 
z"/>
<path fill="#D1D1D1" opacity="1.000000" stroke="none" 
	d="
M25.986124,60.498055 
	C27.601250,60.175442 29.266178,60.204338 31.468727,60.627068 
	C34.670532,61.704586 37.334717,62.388268 39.998901,63.071953 
	C43.447906,63.989990 46.896915,64.908028 50.758179,66.371704 
	C54.441044,67.293839 57.711651,67.670341 60.982258,68.046837 
	C61.578453,68.272285 62.174644,68.497726 62.881924,69.033783 
	C60.166843,71.400063 50.304825,72.176903 47.822781,69.592690 
	C43.768734,65.371780 38.984703,65.789345 34.101337,65.936684 
	C30.169035,66.055336 27.353998,64.720543 25.986124,60.498055 
z"/>
<path fill="#E2E2E2" opacity="1.000000" stroke="none" 
	d="
M75.967979,62.408211 
	C62.804440,59.728882 49.573784,56.724640 36.171467,53.360596 
	C42.055893,51.741367 47.920349,50.547108 53.695740,54.671124 
	C55.986263,56.306713 59.499931,56.949226 62.411449,56.839771 
	C67.838928,56.635735 72.481155,57.540398 75.967979,62.408211 
z"/>
<path fill="#CECECE" opacity="1.000000" stroke="none" 
	d="
M154.912933,90.642273 
	C161.406250,91.572601 167.970032,92.851822 174.774170,94.404434 
	C168.529083,97.714340 157.803268,95.740288 154.912933,90.642273 
z"/>
<path fill="#D1D1D1" opacity="1.000000" stroke="none" 
	d="
M17.362741,54.367943 
	C19.051159,55.948311 20.345869,57.495121 21.886925,59.350464 
	C20.084362,60.064682 18.035454,60.470367 15.498030,60.532928 
	C12.714150,58.445221 10.418787,56.700638 8.123424,54.956055 
	C8.515896,53.011837 8.908368,51.067623 9.682332,49.071980 
	C9.514632,54.496548 14.199418,53.171108 17.362741,54.367943 
z"/>
<path fill="#E2E2E2" opacity="1.000000" stroke="none" 
	d="
M95.935349,66.699203 
	C90.430412,65.928688 84.889641,64.792412 79.181267,63.299583 
	C86.164383,60.445366 92.674339,61.752457 95.935349,66.699203 
z"/>
<path fill="#D1D1D1" opacity="1.000000" stroke="none" 
	d="
M67.036972,70.319138 
	C69.047997,70.056259 71.073982,70.153000 73.621765,70.654503 
	C76.772400,72.396515 79.401222,73.733772 82.030052,75.071022 
	C75.620811,77.019394 70.450089,75.503098 67.036972,70.319138 
z"/>
<path fill="#E7E7E7" opacity="1.000000" stroke="none" 
	d="
M119.841141,81.182304 
	C120.413719,81.336060 120.986305,81.489815 121.784882,82.199463 
	C122.674530,83.168518 123.338165,83.581688 124.007957,84.238037 
	C124.014107,84.481232 124.003113,84.967644 124.003113,84.967644 
	C119.284821,86.668846 113.620049,85.239769 111.390228,81.282440 
	C112.122833,80.196503 112.558662,79.538979 112.994492,78.881454 
	C112.994499,78.881454 113.218208,78.457253 113.762054,78.727829 
	C114.943825,78.881470 115.581741,78.764542 116.219666,78.647614 
	C116.219666,78.647614 116.406059,79.033981 116.233047,79.588684 
	C116.600937,83.108192 117.885635,83.365944 119.841141,81.182304 
z"/>
<path fill="#C2C2C2" opacity="1.000000" stroke="none" 
	d="
M113.013489,78.577011 
	C112.558662,79.538979 112.122833,80.196503 111.354836,80.910408 
	C107.318039,80.640778 103.613411,80.314766 99.231499,79.716995 
	C96.671875,78.044716 94.789543,76.644203 92.907204,75.243698 
	C93.363045,75.135521 93.818878,75.027351 94.795792,75.181702 
	C95.933243,75.552277 96.549614,75.660332 97.541748,75.847275 
	C102.807510,76.569183 107.697525,77.212196 112.587532,77.855217 
	C112.735847,77.994339 112.884163,78.133453 113.013489,78.577011 
z"/>
<path fill="#E7E7E7" opacity="1.000000" stroke="none" 
	d="
M92.502724,75.140610 
	C94.789543,76.644203 96.671875,78.044716 98.778374,79.712067 
	C94.294807,81.713142 90.059357,80.150421 87.963577,75.543335 
	C89.339813,75.132248 90.719032,75.084885 92.502724,75.140610 
z"/>
<path fill="#D1D1D1" opacity="1.000000" stroke="none" 
	d="
M26.981289,51.051617 
	C22.888735,50.077408 18.796181,49.103199 14.640158,47.708908 
	C16.388531,47.173832 18.200373,47.058842 20.012215,46.943851 
	C21.375727,47.005161 22.739237,47.066471 24.590666,47.470940 
	C25.712818,48.893269 26.347054,49.972443 26.981289,51.051617 
z"/>
<path fill="#F8F8F8" opacity="1.000000" stroke="none" 
	d="
M19.999411,46.570446 
	C18.200373,47.058842 16.388531,47.173832 14.286789,47.536598 
	C13.542878,47.828411 13.088866,47.872448 12.301556,47.833221 
	C10.212776,45.167519 12.143003,44.235535 14.019465,43.568073 
	C16.720306,42.607380 19.148632,42.716534 19.999411,46.570446 
z"/>
<path fill="#F5F5F5" opacity="1.000000" stroke="none" 
	d="
M7.836226,55.160698 
	C10.418787,56.700638 12.714150,58.445221 15.097282,60.531677 
	C12.298458,59.510563 7.335746,61.025684 7.836226,55.160698 
z"/>
<path fill="#E2E2E2" opacity="1.000000" stroke="none" 
	d="
M27.160622,51.393932 
	C26.347054,49.972443 25.712818,48.893269 24.998358,47.506439 
	C28.285975,46.813606 31.444098,46.787952 31.960377,51.688393 
	C30.424643,51.961456 28.882298,51.848854 27.160622,51.393932 
z"/>
<path fill="#C2C2C2" opacity="1.000000" stroke="none" 
	d="
M82.429611,75.064697 
	C79.401222,73.733772 76.772400,72.396515 74.044235,70.753952 
	C77.321449,71.612144 80.698006,72.775650 84.204811,74.252640 
	C83.833099,74.730202 83.331139,74.894287 82.429611,75.064697 
z"/>
<path fill="#E7E7E7" opacity="1.000000" stroke="none" 
	d="
M135.217163,85.895531 
	C135.989929,85.552094 136.701141,85.602730 137.754333,86.088623 
	C139.089966,87.303894 140.083633,88.083900 141.396637,88.896164 
	C142.144379,88.920273 142.572754,88.912125 143.004395,89.167809 
	C143.005569,89.607536 143.003494,89.783424 143.001404,89.959320 
	C139.260452,91.142799 136.456512,90.322937 135.217163,85.895531 
z"/>
<path fill="#C1C1C1" opacity="1.000000" stroke="none" 
	d="
M124.445175,84.976456 
	C124.003113,84.967644 124.014107,84.481232 124.016785,83.941788 
	C124.031723,83.205093 124.043983,83.007843 124.056236,82.810600 
	C125.689583,83.165634 127.322937,83.520660 129.117188,84.183273 
	C127.814461,84.655655 126.350845,84.820457 124.445175,84.976456 
z"/>
<path fill="#BCBCBC" opacity="1.000000" stroke="none" 
	d="
M144.952942,87.769341 
	C145.655289,87.934090 146.357651,88.098831 147.089478,88.541374 
	C146.654160,88.930809 146.189362,89.042450 145.356094,88.812515 
	C144.976059,88.237061 144.964493,88.003204 144.952942,87.769341 
z"/>
<path fill="#CECECE" opacity="1.000000" stroke="none" 
	d="
M144.643433,87.766830 
	C144.964493,88.003204 144.976059,88.237061 144.996384,88.823486 
	C144.528183,89.435509 144.051224,89.694969 143.287827,89.956879 
	C143.003494,89.783424 143.005569,89.607536 143.020950,88.838814 
	C143.058548,88.027061 143.082870,87.808128 143.107193,87.589203 
	C143.516098,87.647575 143.925003,87.705940 144.643433,87.766830 
z"/>
<path fill="#6D6D6D" opacity="1.000000" stroke="none" 
	d="
M112.475830,77.552956 
	C107.697525,77.212196 102.807510,76.569183 97.511734,75.538483 
	C97.042023,74.524460 96.978065,73.898125 96.914108,73.271782 
	C102.064110,74.598091 107.214119,75.924393 112.475830,77.552956 
z"/>
<path fill="#C2C2C2" opacity="1.000000" stroke="none" 
	d="
M119.876083,80.711128 
	C117.885635,83.365944 116.600937,83.108192 116.168274,79.793167 
	C117.268715,79.276093 118.260925,79.109253 119.597755,79.118973 
	C119.931931,79.610336 119.921478,79.925140 119.876083,80.711128 
z"/>
<path fill="#959595" opacity="1.000000" stroke="none" 
	d="
M96.594818,73.223206 
	C96.978065,73.898125 97.042023,74.524460 97.135979,75.459595 
	C96.549614,75.660332 95.933243,75.552277 95.148827,75.162140 
	C94.992668,74.489319 95.004547,74.098602 95.000549,73.414307 
	C95.414955,73.138702 95.845245,73.156662 96.594818,73.223206 
z"/>
<path fill="#6D6D6D" opacity="1.000000" stroke="none" 
	d="
M116.188721,78.364868 
	C115.581741,78.764542 114.943825,78.881470 113.966568,78.602631 
	C114.470757,78.165283 115.314270,78.123711 116.188721,78.364868 
z"/>
<path fill="#C2C2C2" opacity="1.000000" stroke="none" 
	d="
M60.833080,67.681778 
	C57.711651,67.670341 54.441044,67.293839 51.071129,66.558060 
	C54.209183,66.571419 57.446541,66.944069 60.833080,67.681778 
z"/>
<path fill="#9F9F9F" opacity="1.000000" stroke="none" 
	d="
M39.800140,62.771332 
	C37.334717,62.388268 34.670532,61.704586 31.877430,60.711498 
	C34.366131,61.091633 36.983753,61.781178 39.800140,62.771332 
z"/>
<path fill="#CECECE" opacity="1.000000" stroke="none" 
	d="
M141.077286,88.863907 
	C140.083633,88.083900 139.089966,87.303894 138.105804,86.160278 
	C138.828644,85.852066 139.541992,85.907455 140.615280,86.377808 
	C141.009232,87.483147 141.043259,88.173523 141.077286,88.863907 
z"/>
<path fill="#BCBCBC" opacity="1.000000" stroke="none" 
	d="
M141.396637,88.896164 
	C141.043259,88.173523 141.009232,87.483147 140.968094,86.447449 
	C141.629578,86.411034 142.298157,86.719940 143.036972,87.309021 
	C143.082870,87.808128 143.058548,88.027061 143.017685,88.574982 
	C142.572754,88.912125 142.144379,88.920273 141.396637,88.896164 
z"/>
<path fill="#C2C2C2" opacity="1.000000" stroke="none" 
	d="
M123.854385,82.587936 
	C124.043983,83.007843 124.031723,83.205093 124.010635,83.698593 
	C123.338165,83.581688 122.674530,83.168518 121.964752,82.443008 
	C122.496597,82.208862 123.074570,82.287064 123.854385,82.587936 
z"/>
</svg>