<svg version="1.1" id="Layer_1" xmlns="http://www.w3.org/2000/svg" xmlns:xlink="http://www.w3.org/1999/xlink" x="0px" y="0px"
	 width="100%" viewBox="0 0 141 128" enable-background="new 0 0 141 128" xml:space="preserve">
<path fill="#FFFFFF" opacity="1.000000" stroke="none" 
	d="
M70.000000,129.000000 
	C46.666668,129.000000 23.833334,129.000000 1.000000,129.000000 
	C1.000000,86.333336 1.000000,43.666668 1.000000,1.000000 
	C48.000000,1.000000 95.000000,1.000000 142.000000,1.000000 
	C142.000000,43.666668 142.000000,86.333336 142.000000,129.000000 
	C118.166664,129.000000 94.333336,129.000000 70.000000,129.000000 
M67.341232,51.764599 
	C73.850792,47.332558 80.253815,42.672436 89.868439,41.436104 
	C89.089249,45.337414 88.777390,48.665951 87.716988,51.735935 
	C86.539490,55.144920 84.232155,58.199146 83.315132,61.646793 
	C82.891968,63.237740 84.605057,65.396896 85.349556,67.298416 
	C87.338722,66.366936 90.088020,65.956551 91.158371,64.395203 
	C93.367981,61.172001 94.632576,57.310677 96.377434,53.756775 
	C98.716492,48.992592 98.026497,39.582184 94.833176,36.242722 
	C90.291176,31.492863 84.903679,33.121693 79.991859,35.097298 
	C66.728241,40.432098 55.831211,49.223373 46.101055,59.534004 
	C43.962963,61.799644 43.599922,64.828644 46.190540,66.406914 
	C47.568649,67.246498 50.932026,66.354637 52.480762,65.105484 
	C57.468098,61.082901 62.028549,56.531055 67.341232,51.764599 
z"/>
<path fill="#0A0A0A" opacity="1.000000" stroke="none" 
	d="
M67.047417,51.973942 
	C62.028549,56.531055 57.468098,61.082901 52.480762,65.105484 
	C50.932026,66.354637 47.568649,67.246498 46.190540,66.406914 
	C43.599922,64.828644 43.962963,61.799644 46.101055,59.534004 
	C55.831211,49.223373 66.728241,40.432098 79.991859,35.097298 
	C84.903679,33.121693 90.291176,31.492863 94.833176,36.242722 
	C98.026497,39.582184 98.716492,48.992592 96.377434,53.756775 
	C94.632576,57.310677 93.367981,61.172001 91.158371,64.395203 
	C90.088020,65.956551 87.338722,66.366936 85.349556,67.298416 
	C84.605057,65.396896 82.891968,63.237740 83.315132,61.646793 
	C84.232155,58.199146 86.539490,55.144920 87.716988,51.735935 
	C88.777390,48.665951 89.089249,45.337414 89.868439,41.436104 
	C80.253815,42.672436 73.850792,47.332558 67.047417,51.973942 
z"/>
</svg>