<svg version="1.1" id="Layer_1" xmlns="http://www.w3.org/2000/svg" xmlns:xlink="http://www.w3.org/1999/xlink" x="0px" y="0px"
	 width="100%" viewBox="0 0 141 128" enable-background="new 0 0 141 128" xml:space="preserve">
<path fill="#FFFFFF" opacity="1.000000" stroke="none" 
	d="
M69.000000,129.000000 
	C46.000000,129.000000 23.500000,129.000000 1.000000,129.000000 
	C1.000000,86.333336 1.000000,43.666668 1.000000,1.000000 
	C48.000000,1.000000 95.000000,1.000000 142.000000,1.000000 
	C142.000000,43.666668 142.000000,86.333336 142.000000,129.000000 
	C117.833336,129.000000 93.666664,129.000000 69.000000,129.000000 
M81.458809,65.009048 
	C82.872765,62.030182 84.100906,58.944302 85.741348,56.095875 
	C88.685249,50.984184 88.336975,41.086861 84.845154,37.218910 
	C81.739006,33.778179 75.528137,33.241421 69.058609,36.436798 
	C63.911572,38.978977 58.720352,41.664974 54.154202,45.093475 
	C47.834179,49.838875 41.998150,55.248035 36.129059,60.565228 
	C33.835995,62.642662 33.626030,65.743294 36.183289,67.429993 
	C37.460171,68.272186 40.710484,67.618767 42.141483,66.478668 
	C49.345840,60.738899 55.935932,54.190784 63.368744,48.789360 
	C67.697296,45.643799 73.204163,44.119717 78.180862,41.866070 
	C78.706734,42.322529 79.232605,42.778992 79.758476,43.235451 
	C79.144173,46.341751 78.856598,49.561523 77.827766,52.523853 
	C76.698425,55.775551 74.469406,58.671795 73.537781,61.955093 
	C73.032661,63.735260 73.561165,66.972527 74.807922,67.829750 
	C77.012184,69.345322 79.983627,69.152374 81.458809,65.009048 
M62.599018,89.002991 
	C54.264923,91.335228 45.909164,93.595482 37.623718,96.089348 
	C36.568790,96.406876 35.881218,97.944878 35.023457,98.917458 
	C36.324921,99.603683 37.850765,101.129143 38.894161,100.850166 
	C54.377491,96.710388 69.810898,92.379776 85.202614,87.910027 
	C86.332565,87.581886 87.052025,85.840202 87.962318,84.755684 
	C86.556702,84.183266 84.960983,82.861603 83.776825,83.162048 
	C76.945984,84.895119 70.212418,87.011581 62.599018,89.002991 
z"/>
<path fill="#0A0A0A" opacity="1.000000" stroke="none" 
	d="
M81.355156,65.370834 
	C79.983627,69.152374 77.012184,69.345322 74.807922,67.829750 
	C73.561165,66.972527 73.032661,63.735260 73.537781,61.955093 
	C74.469406,58.671795 76.698425,55.775551 77.827766,52.523853 
	C78.856598,49.561523 79.144173,46.341751 79.758476,43.235451 
	C79.232605,42.778992 78.706734,42.322529 78.180862,41.866070 
	C73.204163,44.119717 67.697296,45.643799 63.368744,48.789360 
	C55.935932,54.190784 49.345840,60.738899 42.141483,66.478668 
	C40.710484,67.618767 37.460171,68.272186 36.183289,67.429993 
	C33.626030,65.743294 33.835995,62.642662 36.129059,60.565228 
	C41.998150,55.248035 47.834179,49.838875 54.154202,45.093475 
	C58.720352,41.664974 63.911572,38.978977 69.058609,36.436798 
	C75.528137,33.241421 81.739006,33.778179 84.845154,37.218910 
	C88.336975,41.086861 88.685249,50.984184 85.741348,56.095875 
	C84.100906,58.944302 82.872765,62.030182 81.355156,65.370834 
z"/>
<path fill="#000000" opacity="1.000000" stroke="none" 
	d="
M63.022457,89.000572 
	C70.212418,87.011581 76.945984,84.895119 83.776825,83.162048 
	C84.960983,82.861603 86.556702,84.183266 87.962326,84.755692 
	C87.052025,85.840202 86.332565,87.581886 85.202614,87.910027 
	C69.810898,92.379776 54.377491,96.710388 38.894161,100.850166 
	C37.850765,101.129143 36.324921,99.603683 35.023457,98.917458 
	C35.881218,97.944878 36.568790,96.406876 37.623718,96.089348 
	C45.909164,93.595482 54.264923,91.335228 63.022457,89.000572 
z"/>
</svg>