<svg version="1.1" id="Layer_1" xmlns="http://www.w3.org/2000/svg" xmlns:xlink="http://www.w3.org/1999/xlink" x="0px" y="0px"
	 width="100%" viewBox="0 0 141 128" enable-background="new 0 0 141 128" xml:space="preserve">
<path fill="#FFFFFF" opacity="1.000000" stroke="none" 
	d="
M68.000000,129.000000 
	C45.333332,129.000000 23.166666,129.000000 1.000000,129.000000 
	C1.000000,86.333336 1.000000,43.666668 1.000000,1.000000 
	C48.000000,1.000000 95.000000,1.000000 142.000000,1.000000 
	C142.000000,43.666668 142.000000,86.333336 142.000000,129.000000 
	C117.500000,129.000000 93.000000,129.000000 68.000000,129.000000 
M73.163353,58.513893 
	C72.903519,59.303421 72.665588,60.100971 72.379898,60.881027 
	C71.370575,63.636925 71.015373,66.314247 74.592178,67.309326 
	C77.901070,68.229858 79.758781,66.712860 80.807442,63.365871 
	C81.733536,60.410072 83.300217,57.616646 84.848907,54.902668 
	C87.596825,50.087166 87.349258,40.098106 84.017967,36.434948 
	C79.589035,31.564804 74.216171,33.049149 69.250526,35.030182 
	C55.810501,40.392052 44.681740,49.165848 35.082840,59.818489 
	C33.946293,61.079811 34.872112,64.199486 34.841923,66.457726 
	C37.024036,66.114456 39.785542,66.494583 41.282383,65.295715 
	C46.281040,61.292103 50.557102,56.374870 55.613689,52.457882 
	C62.086185,47.444084 68.889534,42.730713 78.009178,41.545361 
	C78.132401,43.763191 78.795769,45.856861 78.228889,47.534943 
	C77.022552,51.105980 75.177032,54.461094 73.163353,58.513893 
M59.540035,96.208893 
	C60.335987,94.491920 62.198967,92.279022 61.684116,91.171280 
	C60.859966,89.398056 58.619526,87.726814 56.667786,87.229866 
	C55.370434,86.899544 52.833828,88.308159 52.113899,89.627190 
	C51.206554,91.289604 50.855000,95.096100 51.545738,95.445908 
	C53.642784,96.507881 56.357479,96.350235 59.540035,96.208893 
z"/>
<path fill="#0A0A0A" opacity="1.000000" stroke="none" 
	d="
M73.378418,58.209297 
	C75.177032,54.461094 77.022552,51.105980 78.228889,47.534943 
	C78.795769,45.856861 78.132401,43.763191 78.009178,41.545361 
	C68.889534,42.730713 62.086185,47.444084 55.613689,52.457882 
	C50.557102,56.374870 46.281040,61.292103 41.282383,65.295715 
	C39.785542,66.494583 37.024036,66.114456 34.841923,66.457726 
	C34.872112,64.199486 33.946293,61.079811 35.082840,59.818489 
	C44.681740,49.165848 55.810501,40.392052 69.250526,35.030182 
	C74.216171,33.049149 79.589035,31.564804 84.017967,36.434948 
	C87.349258,40.098106 87.596825,50.087166 84.848907,54.902668 
	C83.300217,57.616646 81.733536,60.410072 80.807442,63.365871 
	C79.758781,66.712860 77.901070,68.229858 74.592178,67.309326 
	C71.015373,66.314247 71.370575,63.636925 72.379898,60.881027 
	C72.665588,60.100971 72.903519,59.303421 73.378418,58.209297 
z"/>
<path fill="#090909" opacity="1.000000" stroke="none" 
	d="
M59.185822,96.438248 
	C56.357479,96.350235 53.642784,96.507881 51.545738,95.445908 
	C50.855000,95.096100 51.206554,91.289604 52.113899,89.627190 
	C52.833828,88.308159 55.370434,86.899544 56.667786,87.229866 
	C58.619526,87.726814 60.859966,89.398056 61.684116,91.171280 
	C62.198967,92.279022 60.335987,94.491920 59.185822,96.438248 
z"/>
</svg>