<svg version="1.1" id="Layer_1" xmlns="http://www.w3.org/2000/svg" xmlns:xlink="http://www.w3.org/1999/xlink" x="0px" y="0px"
	 width="100%" viewBox="0 0 141 128" enable-background="new 0 0 141 128" xml:space="preserve">
<path fill="#FEFEFE" opacity="1.000000" stroke="none" 
	d="
M101.000000,129.000000 
	C67.333336,129.000000 34.166668,129.000000 1.000000,129.000000 
	C1.000000,86.333336 1.000000,43.666668 1.000000,1.000000 
	C48.000000,1.000000 95.000000,1.000000 142.000000,1.000000 
	C142.000000,43.666668 142.000000,86.333336 142.000000,129.000000 
	C128.500000,129.000000 115.000000,129.000000 101.000000,129.000000 
M24.098175,98.594330 
	C24.126547,98.997643 24.154919,99.400948 24.062174,100.600533 
	C24.888885,105.930977 28.884016,108.052094 34.207466,109.773872 
	C38.648380,109.798187 43.092388,109.936539 47.529388,109.816360 
	C52.463501,109.682732 53.575783,107.731339 51.525085,102.090683 
	C49.832127,100.825813 48.299370,99.176239 46.407715,98.388496 
	C43.738564,97.276970 40.803844,96.803146 37.929962,95.332321 
	C36.717724,94.199074 35.505486,93.065834 33.970486,91.408836 
	C33.750183,90.626549 33.529881,89.844254 34.035152,89.036743 
	C35.313850,87.136131 36.767090,85.328072 37.834347,83.315346 
	C39.955276,79.315475 41.376125,74.850014 43.993694,71.233772 
	C46.743843,67.434349 50.345364,64.152954 53.966461,61.111412 
	C57.215034,58.382774 61.173473,56.510330 64.497025,53.857159 
	C68.818695,50.407192 72.822327,46.558842 77.527840,42.503372 
	C85.297714,37.507202 93.173561,32.662792 100.741821,27.377905 
	C102.138794,26.402405 102.291847,23.645554 103.019035,21.710896 
	C100.852097,21.121946 98.710518,20.353786 96.504417,20.041464 
	C95.734543,19.932472 94.789726,20.923079 93.951447,21.453634 
	C78.791397,31.048603 63.449741,40.372242 48.538330,50.339466 
	C36.968876,58.072823 29.898609,69.660553 23.303347,82.072205 
	C17.101574,86.380547 17.476379,94.730888 24.098175,98.594330 
z"/>
<path fill="#0A0A0A" opacity="1.000000" stroke="none" 
	d="
M37.982662,96.056686 
	C40.803844,96.803146 43.738564,97.276970 46.407715,98.388496 
	C48.299370,99.176239 49.832127,100.825813 51.402260,102.794144 
	C49.670113,104.606255 48.152874,106.497032 46.436821,106.699074 
	C33.427467,108.230682 25.351028,100.638199 24.134203,85.622169 
	C24.156048,84.149986 24.095749,83.076828 24.035450,82.003677 
	C29.898609,69.660553 36.968876,58.072823 48.538330,50.339466 
	C63.449741,40.372242 78.791397,31.048603 93.951447,21.453634 
	C94.789726,20.923079 95.734543,19.932472 96.504417,20.041464 
	C98.710518,20.353786 100.852097,21.121946 103.019035,21.710896 
	C102.291847,23.645554 102.138794,26.402405 100.741821,27.377905 
	C93.173561,32.662792 85.297714,37.507202 76.878326,42.662701 
	C60.662624,51.307690 46.215229,61.068775 37.036148,76.911240 
	C34.845566,80.692032 31.035892,83.930168 33.309578,89.061966 
	C33.529881,89.844254 33.750183,90.626549 34.178825,91.994751 
	C35.585659,93.739342 36.784161,94.898018 37.982662,96.056686 
z"/>
<path fill="#D3D3D3" opacity="1.000000" stroke="none" 
	d="
M33.672367,89.049355 
	C31.035892,83.930168 34.845566,80.692032 37.036148,76.911240 
	C46.215229,61.068775 60.662624,51.307690 76.595825,42.851990 
	C72.822327,46.558842 68.818695,50.407192 64.497025,53.857159 
	C61.173473,56.510330 57.215034,58.382774 53.966461,61.111412 
	C50.345364,64.152954 46.743843,67.434349 43.993694,71.233772 
	C41.376125,74.850014 39.955276,79.315475 37.834347,83.315346 
	C36.767090,85.328072 35.313850,87.136131 33.672367,89.049355 
z"/>
<path fill="#B8B8B8" opacity="1.000000" stroke="none" 
	d="
M24.052059,86.021202 
	C25.351028,100.638199 33.427467,108.230682 46.436821,106.699074 
	C48.152874,106.497032 49.670113,104.606255 51.521507,103.162582 
	C53.575783,107.731339 52.463501,109.682732 47.529388,109.816360 
	C43.092388,109.936539 38.648380,109.798187 33.650806,109.437653 
	C30.123863,106.002373 27.153578,102.903313 24.183292,99.804260 
	C24.154919,99.400948 24.126547,98.997643 24.072556,97.911949 
	C23.300278,95.830170 22.377871,94.494240 21.844643,93.017761 
	C20.828646,90.204506 19.668480,87.193703 24.052059,86.021202 
z"/>
<path fill="#EDEDED" opacity="1.000000" stroke="none" 
	d="
M24.134203,85.622169 
	C19.668480,87.193703 20.828646,90.204506 21.844643,93.017761 
	C22.377871,94.494240 23.300278,95.830170 24.032444,97.611305 
	C17.476379,94.730888 17.101574,86.380547 23.669399,82.037941 
	C24.095749,83.076828 24.156048,84.149986 24.134203,85.622169 
z"/>
<path fill="#E9E9E9" opacity="1.000000" stroke="none" 
	d="
M24.122734,100.202393 
	C27.153578,102.903313 30.123863,106.002373 33.203651,109.417511 
	C28.884016,108.052094 24.888885,105.930977 24.122734,100.202393 
z"/>
<path fill="#D3D3D3" opacity="1.000000" stroke="none" 
	d="
M37.956314,95.694504 
	C36.784161,94.898018 35.585659,93.739342 34.340202,92.256630 
	C35.505486,93.065834 36.717724,94.199074 37.956314,95.694504 
z"/>
</svg>