<svg version="1.1" id="Layer_1" xmlns="http://www.w3.org/2000/svg" xmlns:xlink="http://www.w3.org/1999/xlink" x="0px" y="0px"
	 width="100%" viewBox="0 0 141 121" enable-background="new 0 0 141 121" xml:space="preserve">
<path fill="#FFFFFF" opacity="1.000000" stroke="none" 
	d="
M108.000000,122.000000 
	C72.033905,122.000000 36.567802,122.000000 1.050853,122.000000 
	C1.050853,81.739143 1.050853,41.478199 1.050853,1.108630 
	C47.882473,1.108630 94.765282,1.108630 141.824036,1.108630 
	C141.824036,41.332684 141.824036,81.666298 141.824036,122.000000 
	C130.811966,122.000000 119.655983,122.000000 108.000000,122.000000 
M68.382782,70.409119 
	C71.683716,69.607948 75.587624,69.618515 76.296532,64.368126 
	C76.854889,64.211929 77.413246,64.055733 78.399162,64.538193 
	C79.932777,64.692131 81.466385,64.846062 83.303421,65.441208 
	C83.860397,65.263138 84.417366,65.085068 85.639671,64.933098 
	C86.082138,64.907524 86.524612,64.881950 87.719032,64.912315 
	C91.831856,63.027046 96.041672,61.315350 99.978607,59.115330 
	C100.801651,58.655403 100.617867,56.393749 101.333244,54.437458 
	C102.211418,54.250191 103.089600,54.062920 104.218178,54.557076 
	C106.974678,57.277802 109.259369,55.185726 111.339569,53.582405 
	C111.658424,53.336639 110.560150,51.252239 110.214127,49.189117 
	C110.172371,43.544407 107.895332,42.455891 101.605293,44.712246 
	C89.213387,49.157455 76.990356,54.322956 64.281441,57.554199 
	C54.510132,60.038551 44.101707,60.017056 33.884846,60.333900 
	C33.238735,57.829590 32.799492,55.246277 31.882584,52.845383 
	C31.116894,50.840450 30.238800,48.123714 28.626657,47.345070 
	C24.568512,45.385033 15.498858,50.146549 14.149696,54.360180 
	C13.038442,57.830799 16.209179,67.664093 19.317905,69.320160 
	C20.111174,69.742744 21.716221,68.641479 23.433043,68.236259 
	C23.808323,68.301346 24.011982,68.523651 23.962904,69.704994 
	C25.000090,75.125099 27.171274,76.150414 33.895138,73.976128 
	C38.535236,74.236565 43.175331,74.497002 48.601406,74.916588 
	C52.480942,75.059433 54.562225,73.121422 55.816837,69.108765 
	C56.882423,69.099045 57.948006,69.089325 59.421906,69.682877 
	C60.283913,69.231941 61.145920,68.781006 62.601074,68.164879 
	C63.009708,68.186905 63.418343,68.208931 64.019524,69.054893 
	C65.353264,69.328285 66.687004,69.601677 68.382782,70.409119 
z"/>
<path fill="#0D0D0D" opacity="1.000000" stroke="none" 
	d="
M63.826977,68.230957 
	C63.418343,68.208931 63.009708,68.186905 62.068394,68.062004 
	C60.695004,68.332619 59.854298,68.706108 59.013592,69.079605 
	C57.948006,69.089325 56.882423,69.099045 55.060444,69.063927 
	C52.526642,69.324478 50.749233,69.629868 48.510849,69.855698 
	C42.025509,69.884933 36.001141,69.993736 29.606792,70.000198 
	C27.505878,69.566292 25.774950,69.234734 24.044020,68.903183 
	C24.011982,68.523651 23.808323,68.301346 23.068779,67.920517 
	C21.727404,66.086388 20.750294,64.568001 19.818031,62.757092 
	C19.573265,61.976910 19.283651,61.489258 19.034327,60.629227 
	C18.998030,59.515484 18.921448,58.774120 19.027985,57.722916 
	C19.403564,56.259483 19.596024,55.105888 19.947849,53.611000 
	C20.869913,50.527950 22.237043,47.709812 25.412342,49.121399 
	C26.997847,49.826229 27.569832,52.868893 28.522377,54.890804 
	C28.713625,55.296757 28.616264,55.878063 28.544237,56.362503 
	C27.887100,60.782227 29.947300,62.066467 33.976604,61.109890 
	C44.101707,60.017056 54.510132,60.038551 64.281441,57.554199 
	C76.990356,54.322956 89.213387,49.157455 101.605293,44.712246 
	C107.895332,42.455891 110.172371,43.544407 109.872002,49.771759 
	C107.675842,51.528149 105.821808,52.701897 103.967773,53.875648 
	C103.089600,54.062920 102.211418,54.250191 100.800041,54.680626 
	C99.511497,55.287571 98.756157,55.651348 97.667877,55.971294 
	C96.215134,56.597385 95.095329,57.267311 93.633652,57.964008 
	C91.862633,58.688206 90.433487,59.385632 88.631500,60.049637 
	C84.829628,61.310654 81.400612,62.605091 77.971596,63.899529 
	C77.413246,64.055733 76.854889,64.211929 75.725327,64.518303 
	C73.441315,65.133820 71.728508,65.599167 69.665054,65.954254 
	C67.485268,66.639648 65.656120,67.435303 63.826977,68.230957 
z"/>
<path fill="#E0E0E0" opacity="1.000000" stroke="none" 
	d="
M33.930725,60.721893 
	C29.947300,62.066467 27.887100,60.782227 28.544237,56.362503 
	C28.616264,55.878063 28.713625,55.296757 28.522377,54.890804 
	C27.569832,52.868893 26.997847,49.826229 25.412342,49.121399 
	C22.237043,47.709812 20.869913,50.527950 19.608902,53.634903 
	C17.058281,55.214928 15.738677,56.478031 18.844864,58.032757 
	C18.921448,58.774120 18.998030,59.515484 18.798584,60.773735 
	C18.939430,61.876957 19.356306,62.463287 19.773184,63.049618 
	C20.750294,64.568001 21.727404,66.086388 22.826406,67.922562 
	C21.716221,68.641479 20.111174,69.742744 19.317905,69.320160 
	C16.209179,67.664093 13.038442,57.830799 14.149696,54.360180 
	C15.498858,50.146549 24.568512,45.385033 28.626657,47.345070 
	C30.238800,48.123714 31.116894,50.840450 31.882584,52.845383 
	C32.799492,55.246277 33.238735,57.829590 33.930725,60.721893 
z"/>
<path fill="#BEBEBE" opacity="1.000000" stroke="none" 
	d="
M29.976776,70.102539 
	C36.001141,69.993736 42.025509,69.884933 48.544952,70.220505 
	C48.631828,72.029068 48.223629,73.393250 47.815430,74.757439 
	C43.175331,74.497002 38.535236,74.236565 33.190567,73.781387 
	C31.649588,72.425270 30.813183,71.263908 29.976776,70.102539 
z"/>
<path fill="#E0E0E0" opacity="1.000000" stroke="none" 
	d="
M89.004349,60.083057 
	C90.433487,59.385632 91.862633,58.688206 93.829735,58.237381 
	C95.578743,57.661034 96.789787,56.838085 98.000824,56.015133 
	C98.756157,55.651348 99.511497,55.287571 100.582443,54.943085 
	C100.617867,56.393749 100.801651,58.655403 99.978607,59.115330 
	C96.041672,61.315350 91.831856,63.027046 87.389267,64.561539 
	C87.707787,62.834862 88.356064,61.458958 89.004349,60.083057 
z"/>
<path fill="#E0E0E0" opacity="1.000000" stroke="none" 
	d="
M29.606792,70.000198 
	C30.813183,71.263908 31.649588,72.425270 32.738213,73.777374 
	C27.171274,76.150414 25.000090,75.125099 24.003462,69.304092 
	C25.774950,69.234734 27.505878,69.566292 29.606792,70.000198 
z"/>
<path fill="#E0E0E0" opacity="1.000000" stroke="none" 
	d="
M48.208420,74.837013 
	C48.223629,73.393250 48.631828,72.029068 49.005928,70.300064 
	C50.749233,69.629868 52.526642,69.324478 54.678101,69.180519 
	C54.562225,73.121422 52.480942,75.059433 48.208420,74.837013 
z"/>
<path fill="#E0E0E0" opacity="1.000000" stroke="none" 
	d="
M104.092972,54.216362 
	C105.821808,52.701897 107.675842,51.528149 109.823593,50.186298 
	C110.560150,51.252239 111.658424,53.336639 111.339569,53.582405 
	C109.259369,55.185726 106.974678,57.277802 104.092972,54.216362 
z"/>
<path fill="#D8D8D8" opacity="1.000000" stroke="none" 
	d="
M88.631500,60.049637 
	C88.356064,61.458958 87.707787,62.834862 87.013290,64.533569 
	C86.524612,64.881950 86.082138,64.907524 85.155914,64.710190 
	C84.114769,64.658188 83.557388,64.829094 83.000000,65.000000 
	C81.466385,64.846062 79.932777,64.692131 78.185379,64.218857 
	C81.400612,62.605091 84.829628,61.310654 88.631500,60.049637 
z"/>
<path fill="#E0E0E0" opacity="1.000000" stroke="none" 
	d="
M70.015701,66.064507 
	C71.728508,65.599167 73.441315,65.133820 75.534508,64.741302 
	C75.587624,69.618515 71.683716,69.607948 68.394363,69.883240 
	C68.942528,68.259750 69.479118,67.162125 70.015701,66.064507 
z"/>
<path fill="#BEBEBE" opacity="1.000000" stroke="none" 
	d="
M69.665054,65.954254 
	C69.479118,67.162125 68.942528,68.259750 68.213341,69.616219 
	C66.687004,69.601677 65.353264,69.328285 63.923248,68.642929 
	C65.656120,67.435303 67.485268,66.639648 69.665054,65.954254 
z"/>
<path fill="#BEBEBE" opacity="1.000000" stroke="none" 
	d="
M59.217751,69.381241 
	C59.854298,68.706108 60.695004,68.332619 61.771820,68.144600 
	C61.145920,68.781006 60.283913,69.231941 59.217751,69.381241 
z"/>
<path fill="#E0E0E0" opacity="1.000000" stroke="none" 
	d="
M83.151711,65.220604 
	C83.557388,64.829094 84.114769,64.658188 84.823250,64.697144 
	C84.417366,65.085068 83.860397,65.263138 83.151711,65.220604 
z"/>
<path fill="#BCBCBC" opacity="1.000000" stroke="none" 
	d="
M19.027985,57.722916 
	C15.738677,56.478031 17.058281,55.214928 19.449532,53.976200 
	C19.596024,55.105888 19.403564,56.259483 19.027985,57.722916 
z"/>
<path fill="#D8D8D8" opacity="1.000000" stroke="none" 
	d="
M97.667877,55.971298 
	C96.789787,56.838085 95.578743,57.661034 94.171616,58.210609 
	C95.095329,57.267311 96.215134,56.597385 97.667877,55.971298 
z"/>
<path fill="#BCBCBC" opacity="1.000000" stroke="none" 
	d="
M19.818031,62.757092 
	C19.356306,62.463287 18.939430,61.876957 18.758297,61.146114 
	C19.283651,61.489258 19.573265,61.976910 19.818031,62.757092 
z"/>
</svg>