<svg version="1.1" id="Layer_1" xmlns="http://www.w3.org/2000/svg" xmlns:xlink="http://www.w3.org/1999/xlink" x="0px" y="0px"
	 width="100%" viewBox="0 0 116 106" enable-background="new 0 0 116 106" xml:space="preserve">
<path fill="#FFFFFF" opacity="1.000000" stroke="none" 
	d="
M63.000000,107.000000 
	C42.000000,107.000000 21.500000,107.000000 1.000000,107.000000 
	C1.000000,71.666664 1.000000,36.333332 1.000000,1.000000 
	C39.666668,1.000000 78.333336,1.000000 117.000000,1.000000 
	C117.000000,36.333332 117.000000,71.666664 117.000000,107.000000 
	C99.166664,107.000000 81.333336,107.000000 63.000000,107.000000 
M50.669876,48.445675 
	C47.490143,47.824284 47.093021,49.817856 46.780392,52.793491 
	C41.912239,56.139507 36.937111,59.345238 32.245575,62.922867 
	C30.952839,63.908669 29.450237,66.520256 29.915083,67.471207 
	C30.640327,68.954865 32.967628,70.491959 34.607548,70.482750 
	C36.714630,70.470932 38.974335,69.210945 40.880466,68.025757 
	C44.361797,65.861153 47.631687,63.356499 51.782669,61.025974 
	C59.351543,59.462894 63.856052,54.042194 63.902748,46.407211 
	C63.915878,44.259228 63.719498,42.100281 63.875107,39.965008 
	C64.143074,36.288040 62.488861,34.760265 59.000275,35.002872 
	C59.000275,35.002872 58.929153,35.077023 58.932640,34.326569 
	C57.560150,33.262035 56.187660,32.197506 54.152061,30.994789 
	C48.346619,30.488379 47.448589,31.367682 47.477795,37.492836 
	C47.676453,39.041672 47.547909,40.733627 48.148476,42.106667 
	C49.111382,44.308079 50.557148,46.298283 51.662392,48.661934 
	C51.662392,48.661934 51.388416,48.817867 50.669876,48.445675 
z"/>
<path fill="#080808" opacity="1.000000" stroke="none" 
	d="
M50.989769,60.993683 
	C47.631687,63.356499 44.361797,65.861153 40.880466,68.025757 
	C38.974335,69.210945 36.714630,70.470932 34.607548,70.482750 
	C32.967628,70.491959 30.640327,68.954865 29.915083,67.471207 
	C29.450237,66.520256 30.952839,63.908669 32.245575,62.922867 
	C36.937111,59.345238 41.912239,56.139507 47.270287,52.452629 
	C48.969593,51.013805 50.179008,49.915840 51.388420,48.817871 
	C51.388416,48.817867 51.662392,48.661934 51.972633,48.276726 
	C53.766136,43.124836 51.652256,39.763927 48.024376,36.994694 
	C47.448589,31.367682 48.346619,30.488379 54.613190,31.360401 
	C56.359264,32.843018 57.644211,33.960022 58.929153,35.077023 
	C58.929153,35.077023 59.000275,35.002872 59.012779,35.405533 
	C63.981228,45.632847 62.388100,52.477329 53.655190,58.922379 
	C52.750126,59.590332 51.877464,60.302193 50.989769,60.993683 
z"/>
<path fill="#BEBEBE" opacity="1.000000" stroke="none" 
	d="
M51.386223,61.009827 
	C51.877464,60.302193 52.750126,59.590332 53.655190,58.922379 
	C62.388100,52.477329 63.981228,45.632847 58.972687,35.437431 
	C62.488861,34.760265 64.143074,36.288040 63.875107,39.965008 
	C63.719498,42.100281 63.915878,44.259228 63.902748,46.407211 
	C63.856052,54.042194 59.351543,59.462894 51.386223,61.009827 
z"/>
<path fill="#CCCCCC" opacity="1.000000" stroke="none" 
	d="
M47.751083,37.243767 
	C51.652256,39.763927 53.766136,43.124836 52.040855,48.134636 
	C50.557148,46.298283 49.111382,44.308079 48.148476,42.106667 
	C47.547909,40.733627 47.676453,39.041672 47.751083,37.243767 
z"/>
<path fill="#CCCCCC" opacity="1.000000" stroke="none" 
	d="
M51.029148,48.631775 
	C50.179008,49.915840 48.969593,51.013805 47.443375,52.163960 
	C47.093021,49.817856 47.490143,47.824284 51.029148,48.631775 
z"/>
<path fill="#BEBEBE" opacity="1.000000" stroke="none" 
	d="
M58.930897,34.701797 
	C57.644211,33.960022 56.359264,32.843018 54.944748,31.429493 
	C56.187660,32.197506 57.560150,33.262035 58.930897,34.701797 
z"/>
</svg>