<svg version="1.1" id="Layer_1" xmlns="http://www.w3.org/2000/svg" xmlns:xlink="http://www.w3.org/1999/xlink" x="0px" y="0px"
	 width="100%" viewBox="0 0 141 121" enable-background="new 0 0 141 121" xml:space="preserve">
<path fill="#FFFFFF" opacity="1.000000" stroke="none" 
	d="
M69.000000,122.000000 
	C46.000000,122.000000 23.500000,122.000000 1.000000,122.000000 
	C1.000000,81.666664 1.000000,41.333332 1.000000,1.000000 
	C48.000000,1.000000 95.000000,1.000000 142.000000,1.000000 
	C142.000000,41.333332 142.000000,81.666664 142.000000,122.000000 
	C117.833336,122.000000 93.666664,122.000000 69.000000,122.000000 
M66.610184,48.570347 
	C60.009605,49.078514 56.331413,54.530567 51.294380,57.680225 
	C51.024391,57.849045 51.118488,58.600124 50.461258,59.160240 
	C50.070702,59.186272 49.680141,59.212307 48.485046,59.087986 
	C44.704807,61.203407 40.838791,63.186371 37.210270,65.536079 
	C36.398045,66.062042 36.418133,67.873306 35.675415,69.199516 
	C35.675415,69.199516 35.282082,69.227562 34.480099,69.087410 
	C32.407085,70.532959 30.460072,72.227715 28.227047,73.356804 
	C25.798313,74.584839 25.746876,76.014992 26.889320,78.498848 
	C26.610243,78.673264 26.331165,78.847672 25.238588,79.002357 
	C23.840942,80.021919 21.625029,80.779991 21.199902,82.110329 
	C19.951471,86.017029 23.169527,87.830345 25.956594,89.178680 
	C27.578569,89.963371 30.341028,90.469093 31.569605,89.621262 
	C36.359497,86.315735 40.571983,82.175575 45.350292,78.850319 
	C47.590641,77.291229 50.845867,77.063354 50.665707,72.879189 
	C58.411922,67.904419 66.158134,62.929649 74.764267,57.978916 
	C81.904198,59.246967 85.594612,52.987137 90.827690,50.252201 
	C94.318634,48.427746 98.210007,47.023598 101.076553,43.257187 
	C103.592880,39.950939 105.362061,35.664394 101.977509,32.548283 
	C99.626282,30.383532 97.882378,30.486586 96.234283,33.975269 
	C94.826851,34.329868 93.419411,34.684467 91.572220,34.473358 
	C87.538788,33.354763 86.137100,35.419048 86.003914,38.998413 
	C86.003914,38.998413 86.053482,39.036045 85.221199,38.991825 
	C82.966164,39.684986 80.646660,40.222656 78.477188,41.122185 
	C76.841606,41.800343 75.473206,43.550529 73.853531,43.750237 
	C70.497963,44.163998 69.786720,46.025982 69.221252,48.978893 
	C68.488289,49.026176 67.755325,49.073460 66.610184,48.570347 
z"/>
<path fill="#000000" opacity="1.000000" stroke="none" 
	d="
M92.011978,35.039066 
	C93.419411,34.684467 94.826851,34.329868 96.995071,34.001457 
	C101.212799,36.855717 101.140274,39.484047 97.463707,41.988644 
	C89.623489,47.329666 81.758934,52.634960 73.904350,57.954884 
	C66.158134,62.929649 58.411922,67.904419 49.992901,73.018173 
	C43.637165,77.127014 38.080833,81.302429 32.188076,84.931580 
	C30.584753,85.919014 27.967611,85.260277 25.815762,85.357056 
	C25.894537,83.245399 25.973312,81.133736 26.052086,79.022079 
	C26.331165,78.847672 26.610243,78.673264 27.291122,78.210022 
	C29.466570,76.623154 31.240219,75.325111 33.374695,74.012955 
	C41.180981,69.023285 48.626438,64.047737 56.421768,59.011086 
	C61.540096,55.648884 66.308548,52.347775 71.424911,48.972183 
	C76.533043,45.610477 81.293266,42.323261 86.053482,39.036045 
	C86.053482,39.036045 86.003914,38.998413 86.370804,39.000904 
	C88.495781,37.681953 90.253883,36.360512 92.011978,35.039066 
z"/>
<path fill="#E1E1E1" opacity="1.000000" stroke="none" 
	d="
M74.334305,57.966904 
	C81.758934,52.634960 89.623489,47.329666 97.463707,41.988644 
	C101.140274,39.484047 101.212799,36.855717 97.366638,33.938274 
	C97.882378,30.486586 99.626282,30.383532 101.977509,32.548283 
	C105.362061,35.664394 103.592880,39.950939 101.076553,43.257187 
	C98.210007,47.023598 94.318634,48.427746 90.827690,50.252201 
	C85.594612,52.987137 81.904198,59.246967 74.334305,57.966904 
z"/>
<path fill="#E9E9E9" opacity="1.000000" stroke="none" 
	d="
M25.645336,79.012222 
	C25.973312,81.133736 25.894537,83.245399 25.815762,85.357056 
	C27.967611,85.260277 30.584753,85.919014 32.188076,84.931580 
	C38.080833,81.302429 43.637165,77.127014 49.668892,73.156761 
	C50.845867,77.063354 47.590641,77.291229 45.350292,78.850319 
	C40.571983,82.175575 36.359497,86.315735 31.569605,89.621262 
	C30.341028,90.469093 27.578569,89.963371 25.956594,89.178680 
	C23.169527,87.830345 19.951471,86.017029 21.199902,82.110329 
	C21.625029,80.779991 23.840942,80.021919 25.645336,79.012222 
z"/>
<path fill="#B5B5B5" opacity="1.000000" stroke="none" 
	d="
M56.071896,59.072182 
	C48.626438,64.047737 41.180981,69.023285 33.389374,73.671402 
	C33.789513,71.971832 34.535797,70.599693 35.282082,69.227562 
	C35.282082,69.227562 35.675415,69.199516 36.228752,69.135574 
	C40.951252,65.793869 45.120419,62.516102 49.289585,59.238338 
	C49.680141,59.212307 50.070702,59.186272 51.139526,59.125954 
	C53.087845,58.936237 54.357899,58.780804 55.738922,58.737087 
	C55.849888,58.848808 56.071896,59.072182 56.071896,59.072182 
z"/>
<path fill="#E9E9E9" opacity="1.000000" stroke="none" 
	d="
M85.637344,39.013935 
	C81.293266,42.323261 76.533043,45.610477 71.139771,48.927776 
	C70.318466,48.918201 70.130211,48.878551 69.941948,48.838898 
	C69.786720,46.025982 70.497963,44.163998 73.853531,43.750237 
	C75.473206,43.550529 76.841606,41.800343 78.477188,41.122185 
	C80.646660,40.222656 82.966164,39.684986 85.637344,39.013935 
z"/>
<path fill="#B5B5B5" opacity="1.000000" stroke="none" 
	d="
M69.581604,48.908897 
	C70.130211,48.878551 70.318466,48.918201 70.791855,49.002262 
	C66.308548,52.347775 61.540096,55.648884 56.421768,59.011086 
	C56.071896,59.072182 55.849888,58.848808 55.861000,58.413948 
	C59.588863,55.026306 63.305611,52.073524 67.022362,49.120743 
	C67.755325,49.073460 68.488289,49.026176 69.581604,48.908897 
z"/>
<path fill="#E9E9E9" opacity="1.000000" stroke="none" 
	d="
M66.816269,48.845543 
	C63.305611,52.073524 59.588863,55.026306 55.750031,58.302227 
	C54.357899,58.780804 53.087845,58.936237 51.430443,59.085911 
	C51.118488,58.600124 51.024391,57.849045 51.294380,57.680225 
	C56.331413,54.530567 60.009605,49.078514 66.816269,48.845543 
z"/>
<path fill="#E9E9E9" opacity="1.000000" stroke="none" 
	d="
M48.887314,59.163162 
	C45.120419,62.516102 40.951252,65.793869 36.418564,69.082230 
	C36.418133,67.873306 36.398045,66.062042 37.210270,65.536079 
	C40.838791,63.186371 44.704807,61.203407 48.887314,59.163162 
z"/>
<path fill="#E9E9E9" opacity="1.000000" stroke="none" 
	d="
M34.881088,69.157486 
	C34.535797,70.599693 33.789513,71.971832 33.028549,73.685516 
	C31.240219,75.325111 29.466570,76.623154 27.346861,77.961472 
	C25.746876,76.014992 25.798313,74.584839 28.227047,73.356804 
	C30.460072,72.227715 32.407085,70.532959 34.881088,69.157486 
z"/>
<path fill="#E9E9E9" opacity="1.000000" stroke="none" 
	d="
M91.792099,34.756210 
	C90.253883,36.360512 88.495781,37.681953 86.385529,39.028252 
	C86.137100,35.419048 87.538788,33.354763 91.792099,34.756210 
z"/>
</svg>