<svg version="1.1" id="Layer_1" xmlns="http://www.w3.org/2000/svg" xmlns:xlink="http://www.w3.org/1999/xlink" x="0px" y="0px"
	 width="100%" viewBox="0 0 141 138" enable-background="new 0 0 141 138" xml:space="preserve">
<path fill="#FFFFFF" opacity="1.000000" stroke="none" 
	d="
M70.000000,139.000000 
	C46.666668,139.000000 23.833334,139.000000 1.000000,139.000000 
	C1.000000,93.000000 1.000000,47.000000 1.000000,1.000000 
	C48.000000,1.000000 95.000000,1.000000 142.000000,1.000000 
	C142.000000,47.000000 142.000000,93.000000 142.000000,139.000000 
	C118.166664,139.000000 94.333336,139.000000 70.000000,139.000000 
M47.209232,62.007370 
	C43.491013,61.781757 42.726547,63.952507 43.025116,67.671234 
	C42.982101,68.082748 42.939087,68.494270 42.250603,69.054764 
	C41.503033,70.038277 40.755466,71.021790 39.750393,72.485023 
	C39.455532,72.942207 39.160675,73.399391 38.324306,74.004768 
	C38.219402,74.669388 38.114494,75.334007 37.968063,76.713684 
	C37.926479,77.425789 37.884895,78.137894 37.136768,79.056450 
	C32.643593,81.118385 33.561199,85.351448 34.405373,88.479446 
	C35.013134,90.731438 38.083927,92.318710 40.855076,94.196297 
	C41.638832,94.083878 42.422592,93.971458 43.854221,93.778999 
	C44.909187,93.556679 45.964157,93.334351 47.102978,93.807533 
	C49.243553,95.925583 50.376152,94.463158 50.809406,92.488617 
	C51.406986,89.765160 51.269272,86.861595 52.016422,84.194847 
	C52.811138,81.358322 53.647984,78.127640 55.553738,76.082039 
	C62.101585,69.053703 68.591766,61.776550 78.805069,59.732605 
	C80.063934,59.480671 80.910637,57.169201 82.621948,55.446457 
	C86.855843,54.075703 91.149620,52.861652 95.301041,51.275097 
	C97.768600,50.332066 100.459976,48.946236 99.345772,45.491955 
	C98.153915,41.796936 95.078873,42.187305 92.313354,43.068249 
	C83.183327,45.976589 74.112633,49.071186 64.529419,51.545422 
	C60.027485,50.634045 56.991352,51.730572 57.000626,56.999332 
	C57.000626,56.999332 57.027081,57.022041 56.275906,56.899117 
	C55.516129,56.937206 54.756351,56.975292 53.562790,56.522755 
	C49.863194,56.474354 47.561653,57.845810 48.000000,62.000000 
	C48.000000,62.000000 48.000050,62.000122 47.209232,62.007370 
z"/>
<path fill="#0B0B0B" opacity="1.000000" stroke="none" 
	d="
M47.019123,93.112030 
	C45.964157,93.334351 44.909187,93.556679 43.312088,93.516876 
	C41.815422,91.658714 40.232479,90.141418 40.020836,88.452309 
	C39.304428,82.734695 39.495903,77.032669 43.142395,71.804962 
	C43.581417,71.090256 43.772682,70.539040 44.271744,69.856491 
	C47.056370,66.818047 49.533203,63.910927 52.255093,60.941231 
	C52.674366,60.603710 52.848583,60.328766 53.346783,60.002918 
	C54.789536,58.975361 55.908310,57.998703 57.027084,57.022041 
	C57.027081,57.022041 57.000626,56.999332 57.348633,56.949291 
	C60.137478,55.297596 62.578320,53.695938 65.019157,52.094284 
	C74.112633,49.071186 83.183327,45.976589 92.313354,43.068249 
	C95.078873,42.187305 98.153915,41.796936 99.345772,45.491955 
	C100.459976,48.946236 97.768600,50.332066 95.301041,51.275097 
	C91.149620,52.861652 86.855843,54.075703 81.901131,55.538605 
	C74.530411,58.834698 67.212067,61.140747 61.398788,65.468491 
	C54.031643,70.953033 47.374424,77.750168 48.514473,88.519760 
	C48.669193,89.981369 47.549000,91.577950 47.019123,93.112030 
z"/>
<path fill="#DBDBDB" opacity="1.000000" stroke="none" 
	d="
M47.061050,93.459778 
	C47.549000,91.577950 48.669193,89.981369 48.514473,88.519760 
	C47.374424,77.750168 54.031643,70.953033 61.398788,65.468491 
	C67.212067,61.140747 74.530411,58.834698 81.564323,55.721436 
	C80.910637,57.169201 80.063934,59.480671 78.805069,59.732605 
	C68.591766,61.776550 62.101585,69.053703 55.553738,76.082039 
	C53.647984,78.127640 52.811138,81.358322 52.016422,84.194847 
	C51.269272,86.861595 51.406986,89.765160 50.809406,92.488617 
	C50.376152,94.463158 49.243553,95.925583 47.061050,93.459778 
z"/>
<path fill="#DBDBDB" opacity="1.000000" stroke="none" 
	d="
M40.056068,94.202484 
	C38.083927,92.318710 35.013134,90.731438 34.405373,88.479446 
	C33.561199,85.351448 32.643593,81.118385 37.539562,79.428268 
	C38.646927,84.600883 39.351498,89.401680 40.056068,94.202484 
z"/>
<path fill="#C7C7C7" opacity="1.000000" stroke="none" 
	d="
M40.455574,94.199387 
	C39.351498,89.401680 38.646927,84.600883 37.892834,79.325043 
	C37.884895,78.137894 37.926479,77.425789 38.236038,76.171310 
	C38.624619,75.038155 38.745216,74.447365 38.865818,73.856575 
	C39.160675,73.399391 39.455532,72.942207 40.239944,72.248169 
	C41.451214,71.997025 42.172928,71.982735 42.894642,71.968452 
	C39.495903,77.032669 39.304428,82.734695 40.020836,88.452309 
	C40.232479,90.141418 41.815422,91.658714 42.988152,93.556892 
	C42.422592,93.971458 41.638832,94.083878 40.455574,94.199387 
z"/>
<path fill="#C7C7C7" opacity="1.000000" stroke="none" 
	d="
M52.010040,61.003807 
	C49.533203,63.910927 47.056370,66.818047 44.033882,69.746361 
	C43.290848,69.480301 43.093460,69.193039 42.896076,68.905785 
	C42.939087,68.494270 42.982101,68.082748 43.399876,67.310768 
	C45.183109,65.300240 46.591579,63.650181 48.000050,62.000122 
	C48.000050,62.000122 48.000000,62.000000 48.324814,61.867981 
	C49.769768,61.491909 50.889904,61.247856 52.010040,61.003807 
z"/>
<path fill="#C7C7C7" opacity="1.000000" stroke="none" 
	d="
M64.774292,51.819855 
	C62.578320,53.695938 60.137478,55.297596 57.358818,56.962975 
	C56.991352,51.730572 60.027485,50.634045 64.774292,51.819855 
z"/>
<path fill="#DBDBDB" opacity="1.000000" stroke="none" 
	d="
M52.255093,60.941231 
	C50.889904,61.247856 49.769768,61.491909 48.324883,61.867985 
	C47.561653,57.845810 49.863194,56.474354 53.652275,57.066803 
	C53.502110,58.425175 53.262455,59.239498 53.022800,60.053818 
	C52.848583,60.328766 52.674366,60.603710 52.255093,60.941231 
z"/>
<path fill="#DBDBDB" opacity="1.000000" stroke="none" 
	d="
M47.604641,62.003746 
	C46.591579,63.650181 45.183109,65.300240 43.443668,67.003525 
	C42.726547,63.952507 43.491013,61.781757 47.604641,62.003746 
z"/>
<path fill="#DBDBDB" opacity="1.000000" stroke="none" 
	d="
M42.573341,68.980270 
	C43.093460,69.193039 43.290848,69.480301 43.726089,69.877686 
	C43.772682,70.539040 43.581417,71.090256 43.142395,71.804962 
	C42.172928,71.982735 41.451214,71.997025 40.368698,72.008308 
	C40.755466,71.021790 41.503033,70.038277 42.573341,68.980270 
z"/>
<path fill="#C7C7C7" opacity="1.000000" stroke="none" 
	d="
M53.346783,60.002918 
	C53.262455,59.239498 53.502110,58.425175 53.869171,57.312119 
	C54.756351,56.975292 55.516129,56.937206 56.651497,56.960579 
	C55.908310,57.998703 54.789536,58.975361 53.346783,60.002918 
z"/>
<path fill="#DBDBDB" opacity="1.000000" stroke="none" 
	d="
M38.595062,73.930672 
	C38.745216,74.447365 38.624619,75.038155 38.256802,75.813782 
	C38.114494,75.334007 38.219402,74.669388 38.595062,73.930672 
z"/>
</svg>