<svg version="1.1" id="Layer_1" xmlns="http://www.w3.org/2000/svg" xmlns:xlink="http://www.w3.org/1999/xlink" x="0px" y="0px"
	 width="100%" viewBox="0 0 141 121" enable-background="new 0 0 141 121" xml:space="preserve">
<path fill="#FEFEFE" opacity="1.000000" stroke="none" 
	d="
M107.000000,122.000000 
	C71.366920,122.000000 36.233833,122.000000 1.050375,122.000000 
	C1.050375,81.738823 1.050375,41.477562 1.050375,1.108152 
	C47.882793,1.108152 94.765923,1.108152 141.824524,1.108152 
	C141.824524,41.332691 141.824524,81.666298 141.824524,122.000000 
	C130.477997,122.000000 118.988998,122.000000 107.000000,122.000000 
M60.706409,54.389820 
	C57.442654,54.118744 55.092575,55.030766 54.636116,59.066887 
	C54.636116,59.066887 54.229858,59.128429 53.377953,59.067524 
	C51.695675,58.960918 50.013401,58.854309 48.331123,58.747700 
	C48.153454,58.285526 47.975788,57.823353 47.798119,57.361176 
	C49.281841,56.147671 50.656532,54.758564 52.271221,53.755978 
	C56.025558,51.424847 57.947479,46.673397 56.103699,43.798061 
	C53.517899,39.765560 50.645695,39.073612 46.273254,41.891487 
	C44.204399,43.238464 42.114002,44.553661 40.070763,45.938438 
	C34.201286,49.916389 31.381750,55.668133 32.169228,62.514332 
	C32.474506,65.168404 34.965237,69.369904 36.966137,69.688309 
	C42.662720,70.594841 49.643272,71.813179 54.265045,69.383331 
	C64.507889,63.998264 73.771606,56.660725 83.047966,49.610661 
	C84.712189,48.345852 85.006149,44.617989 84.886635,42.076546 
	C84.851692,41.333435 81.202682,40.760281 78.429153,40.045094 
	C75.506927,42.933060 70.055405,43.477364 70.002327,49.004627 
	C70.002327,49.004627 70.077560,49.058681 69.249199,49.010048 
	C67.363701,49.371181 65.194611,49.286026 63.688011,50.243412 
	C62.603893,50.932323 62.403301,53.011604 61.641674,54.678532 
	C61.641674,54.678532 61.404144,54.799522 60.706409,54.389820 
z"/>
<path fill="#0A0A0A" opacity="1.000000" stroke="none" 
	d="
M54.229858,59.128429 
	C54.229858,59.128429 54.636116,59.066887 55.135056,58.923744 
	C57.557377,57.453579 59.480762,56.126553 61.404144,54.799522 
	C61.404144,54.799522 61.641674,54.678532 62.026657,54.448009 
	C64.966949,52.497883 67.522255,50.778282 70.077560,49.058678 
	C70.077560,49.058681 70.002327,49.004627 70.351677,48.934891 
	C73.537407,45.946514 76.373787,43.027870 79.210175,40.109230 
	C81.202682,40.760281 84.851692,41.333435 84.886635,42.076546 
	C85.006149,44.617989 84.712189,48.345852 83.047966,49.610661 
	C73.771606,56.660725 64.507889,63.998264 54.265045,69.383331 
	C49.643272,71.813179 42.662720,70.594841 36.966137,69.688309 
	C34.965237,69.369904 32.474506,65.168404 32.169228,62.514332 
	C31.381750,55.668133 34.201286,49.916389 40.070763,45.938438 
	C42.114002,44.553661 44.204399,43.238464 47.027977,41.772789 
	C49.611336,42.675625 51.778816,43.398418 53.085327,44.880295 
	C53.544289,45.400860 52.196831,48.061356 51.123329,49.245171 
	C49.824299,50.677700 47.757305,51.391510 46.353500,52.756588 
	C44.256210,54.796017 42.447807,57.132526 40.404179,59.471210 
	C46.480896,63.391994 49.223782,63.169182 54.229858,59.128429 
z"/>
<path fill="#D7D7D7" opacity="1.000000" stroke="none" 
	d="
M53.803905,59.097977 
	C49.223782,63.169182 46.480896,63.391994 40.404179,59.471210 
	C42.447807,57.132526 44.256210,54.796017 46.353500,52.756588 
	C47.757305,51.391510 49.824299,50.677700 51.123329,49.245171 
	C52.196831,48.061356 53.544289,45.400860 53.085327,44.880295 
	C51.778816,43.398418 49.611336,42.675625 47.353912,41.620461 
	C50.645695,39.073612 53.517899,39.765560 56.103699,43.798061 
	C57.947479,46.673397 56.025558,51.424847 52.271221,53.755978 
	C50.656532,54.758564 49.281841,56.147671 47.798119,57.361176 
	C47.975788,57.823353 48.153454,58.285526 48.331123,58.747700 
	C50.013401,58.854309 51.695675,58.960918 53.803905,59.097977 
z"/>
<path fill="#DDDDDD" opacity="1.000000" stroke="none" 
	d="
M69.663376,49.034363 
	C67.522255,50.778282 64.966949,52.497883 62.110115,54.344086 
	C62.403301,53.011604 62.603893,50.932323 63.688011,50.243412 
	C65.194611,49.286026 67.363701,49.371181 69.663376,49.034363 
z"/>
<path fill="#DDDDDD" opacity="1.000000" stroke="none" 
	d="
M78.819664,40.077160 
	C76.373787,43.027870 73.537407,45.946514 70.380463,48.971203 
	C70.055405,43.477364 75.506927,42.933060 78.819664,40.077160 
z"/>
<path fill="#DDDDDD" opacity="1.000000" stroke="none" 
	d="
M61.055279,54.594673 
	C59.480762,56.126553 57.557377,57.453579 55.300247,58.801601 
	C55.092575,55.030766 57.442654,54.118744 61.055279,54.594673 
z"/>
</svg>