<svg version="1.1" id="Layer_1" xmlns="http://www.w3.org/2000/svg" xmlns:xlink="http://www.w3.org/1999/xlink" x="0px" y="0px"
	 width="100%" viewBox="0 0 141 121" enable-background="new 0 0 141 121" xml:space="preserve">
<path fill="#FEFEFE" opacity="1.000000" stroke="none" 
	d="
M83.000000,122.000000 
	C55.333332,122.000000 28.166666,122.000000 1.000000,122.000000 
	C1.000000,81.666664 1.000000,41.333332 1.000000,1.000000 
	C48.000000,1.000000 95.000000,1.000000 142.000000,1.000000 
	C142.000000,41.333332 142.000000,81.666664 142.000000,122.000000 
	C122.500000,122.000000 103.000000,122.000000 83.000000,122.000000 
M59.706406,57.389885 
	C56.442604,57.118717 54.092655,58.030880 53.636150,62.066914 
	C53.636150,62.066914 53.229904,62.128437 52.377983,62.067558 
	C50.691319,61.957947 49.004658,61.848331 47.317993,61.738720 
	C47.144096,61.269516 46.970203,60.800308 46.796307,60.331104 
	C48.299957,59.117615 49.704643,57.747311 51.327694,56.723019 
	C54.791340,54.537151 56.526596,49.559887 54.687027,46.583115 
	C52.281433,42.690407 49.646484,42.090073 45.273289,44.891521 
	C43.206261,46.237808 41.120762,47.556702 39.075733,48.935612 
	C33.376190,52.778667 30.578751,58.326626 31.129547,65.005363 
	C31.344658,67.613708 33.067795,71.272308 35.169724,72.325256 
	C40.957676,75.224686 47.873699,75.846733 53.387833,72.557739 
	C63.370319,66.603531 72.788437,59.647701 82.056892,52.603123 
	C83.718384,51.340298 84.008904,47.611271 83.884743,45.072163 
	C83.848305,44.327141 80.202034,43.758640 77.429199,43.045135 
	C74.506920,45.933056 69.055443,46.477394 69.002327,52.004639 
	C69.002327,52.004639 69.077591,52.058701 68.249229,52.010094 
	C66.363739,52.371220 64.194656,52.286064 62.688065,53.243439 
	C61.603943,53.932358 61.403339,56.011627 60.641720,57.678596 
	C60.641720,57.678596 60.404148,57.799557 59.706406,57.389885 
M31.768793,103.031013 
	C38.122688,101.353767 44.492832,99.735413 50.827080,97.986992 
	C63.947090,94.365524 77.064117,90.730049 90.128754,86.916649 
	C91.276375,86.581673 92.029358,84.894737 92.965645,83.835747 
	C91.645409,83.399483 90.238716,82.432289 89.021790,82.630440 
	C85.869690,83.143707 82.796364,84.152672 79.700127,84.995094 
	C62.539104,89.664268 45.359058,94.266830 28.250898,99.122551 
	C26.300911,99.676010 23.093357,102.112366 23.308355,102.916336 
	C24.394072,106.976288 27.391930,104.309219 29.709272,103.972282 
	C30.167402,103.905670 30.594826,103.627869 31.768793,103.031013 
z"/>
<path fill="#0A0A0A" opacity="1.000000" stroke="none" 
	d="
M53.229904,62.128437 
	C53.229904,62.128437 53.636150,62.066914 54.135075,61.923752 
	C56.557381,60.453583 58.480766,59.126568 60.404148,57.799557 
	C60.404148,57.799557 60.641720,57.678596 61.026688,57.448036 
	C63.966969,55.497883 66.522278,53.778290 69.077591,52.058701 
	C69.077591,52.058701 69.002327,52.004639 69.351685,51.934898 
	C72.537430,48.946518 75.373825,46.027878 78.210220,43.109238 
	C80.202034,43.758640 83.848305,44.327141 83.884743,45.072163 
	C84.008904,47.611271 83.718384,51.340298 82.056892,52.603123 
	C72.788437,59.647701 63.370319,66.603531 53.387833,72.557739 
	C47.873699,75.846733 40.957676,75.224686 35.169724,72.325256 
	C33.067795,71.272308 31.344658,67.613708 31.129547,65.005363 
	C30.578751,58.326626 33.376190,52.778667 39.075733,48.935612 
	C41.120762,47.556702 43.206261,46.237808 46.028008,44.772804 
	C48.611355,45.675632 50.778835,46.398438 52.085327,47.880322 
	C52.544285,48.400898 51.196812,51.061367 50.123306,52.245182 
	C48.824272,53.677711 46.757286,54.391529 45.353485,55.756607 
	C43.256195,57.796036 41.447800,60.132549 39.404175,62.471233 
	C45.480907,66.391991 48.223747,66.169182 53.229904,62.128437 
z"/>
<path fill="#000000" opacity="1.000000" stroke="none" 
	d="
M31.402599,103.239243 
	C30.594826,103.627869 30.167402,103.905670 29.709272,103.972282 
	C27.391930,104.309219 24.394072,106.976288 23.308355,102.916336 
	C23.093357,102.112366 26.300911,99.676010 28.250898,99.122551 
	C45.359058,94.266830 62.539104,89.664268 79.700127,84.995094 
	C82.796364,84.152672 85.869690,83.143707 89.021790,82.630440 
	C90.238716,82.432289 91.645409,83.399483 92.965645,83.835747 
	C92.029358,84.894737 91.276375,86.581673 90.128754,86.916649 
	C77.064117,90.730049 63.947090,94.365524 50.827080,97.986992 
	C44.492832,99.735413 38.122688,101.353767 31.402599,103.239243 
z"/>
<path fill="#D7D7D7" opacity="1.000000" stroke="none" 
	d="
M52.803944,62.098000 
	C48.223747,66.169182 45.480907,66.391991 39.404175,62.471233 
	C41.447800,60.132549 43.256195,57.796036 45.353485,55.756607 
	C46.757286,54.391529 48.824272,53.677711 50.123306,52.245182 
	C51.196812,51.061367 52.544285,48.400898 52.085327,47.880322 
	C50.778835,46.398438 48.611355,45.675632 46.353943,44.620476 
	C49.646484,42.090073 52.281433,42.690407 54.687027,46.583115 
	C56.526596,49.559887 54.791340,54.537151 51.327694,56.723019 
	C49.704643,57.747311 48.299957,59.117615 46.796307,60.331104 
	C46.970203,60.800308 47.144096,61.269516 47.317993,61.738720 
	C49.004658,61.848331 50.691319,61.957947 52.803944,62.098000 
z"/>
<path fill="#DDDDDD" opacity="1.000000" stroke="none" 
	d="
M68.663406,52.034393 
	C66.522278,53.778290 63.966969,55.497883 61.110142,57.344090 
	C61.403339,56.011627 61.603943,53.932358 62.688065,53.243439 
	C64.194656,52.286064 66.363739,52.371220 68.663406,52.034393 
z"/>
<path fill="#DDDDDD" opacity="1.000000" stroke="none" 
	d="
M77.819710,43.077187 
	C75.373825,46.027878 72.537430,48.946518 69.380478,51.971218 
	C69.055443,46.477394 74.506920,45.933056 77.819710,43.077187 
z"/>
<path fill="#DDDDDD" opacity="1.000000" stroke="none" 
	d="
M60.055275,57.594719 
	C58.480766,59.126568 56.557381,60.453583 54.300259,61.801609 
	C54.092655,58.030880 56.442604,57.118717 60.055275,57.594719 
z"/>
</svg>