<svg version="1.1" id="Layer_1" xmlns="http://www.w3.org/2000/svg" xmlns:xlink="http://www.w3.org/1999/xlink" x="0px" y="0px"
	 width="100%" viewBox="0 0 141 121" enable-background="new 0 0 141 121" xml:space="preserve">
<path fill="#FEFEFE" opacity="1.000000" stroke="none" 
	d="
M83.000000,122.000000 
	C55.333332,122.000000 28.166666,122.000000 1.000000,122.000000 
	C1.000000,81.666664 1.000000,41.333332 1.000000,1.000000 
	C48.000000,1.000000 95.000000,1.000000 142.000000,1.000000 
	C142.000000,41.333332 142.000000,81.666664 142.000000,122.000000 
	C122.500000,122.000000 103.000000,122.000000 83.000000,122.000000 
M57.706406,56.389896 
	C54.442612,56.118729 52.092648,57.030872 51.636162,61.066921 
	C51.636162,61.066921 51.229919,61.128433 50.378006,61.067574 
	C48.695724,60.960953 47.013447,60.854332 45.331165,60.747711 
	C45.153484,60.285545 44.975803,59.823376 44.798119,59.361210 
	C46.281807,58.147694 47.656445,56.758541 49.271107,55.755970 
	C53.025425,53.424843 54.947407,48.673466 53.103699,45.798149 
	C50.518009,41.765682 47.645737,41.073692 43.273296,43.891525 
	C41.205540,45.238087 39.116909,46.553825 37.073982,47.937057 
	C31.205177,51.910713 28.485075,57.640968 29.129572,64.510071 
	C29.359295,66.958504 31.113867,70.353577 33.135666,71.337807 
	C38.966988,74.176552 45.859680,74.849358 51.373055,71.565094 
	C61.361984,65.614761 70.781502,58.652782 80.053490,51.606236 
	C81.716042,50.342728 82.007912,46.613998 81.885498,44.073967 
	C81.849617,43.329613 78.202309,42.759315 75.429199,42.045155 
	C72.506943,44.933090 67.055420,45.477379 67.002327,51.004639 
	C67.002327,51.004639 67.077599,51.058704 66.249229,51.010113 
	C64.363747,51.371235 62.194664,51.286072 60.688072,52.243450 
	C59.603954,52.932358 59.403343,55.011627 58.641735,56.678600 
	C58.641735,56.678600 58.404156,56.799561 57.706406,56.389896 
M46.470924,94.900436 
	C47.685936,95.605186 48.962307,96.971855 50.102188,96.866180 
	C52.017288,96.688652 54.699097,96.067459 55.477089,94.719963 
	C56.301392,93.292259 55.992020,90.024612 54.865498,88.991524 
	C53.753319,87.971588 50.567459,88.027634 49.087708,88.924950 
	C47.588615,89.833992 47.064537,92.350929 46.470924,94.900436 
z"/>
<path fill="#0A0A0A" opacity="1.000000" stroke="none" 
	d="
M51.229919,61.128433 
	C51.229919,61.128433 51.636162,61.066921 52.135086,60.923759 
	C54.557392,59.453583 56.480774,58.126572 58.404160,56.799561 
	C58.404156,56.799561 58.641735,56.678600 59.026695,56.448040 
	C61.966972,54.497887 64.522285,52.778297 67.077599,51.058704 
	C67.077599,51.058704 67.002327,51.004639 67.351685,50.934898 
	C70.537437,47.946522 73.373833,45.027885 76.210220,42.109245 
	C78.202309,42.759315 81.849617,43.329613 81.885498,44.073967 
	C82.007912,46.613998 81.716042,50.342728 80.053490,51.606236 
	C70.781502,58.652782 61.361984,65.614761 51.373055,71.565094 
	C45.859680,74.849358 38.966988,74.176552 33.135666,71.337807 
	C31.113867,70.353577 29.359295,66.958504 29.129572,64.510071 
	C28.485075,57.640968 31.205177,51.910713 37.073982,47.937057 
	C39.116909,46.553825 41.205540,45.238087 44.028015,43.772808 
	C46.611359,44.675640 48.778828,45.398453 50.085331,46.880333 
	C50.544285,47.400894 49.196808,50.061378 48.123306,51.245186 
	C46.824265,52.677711 44.757290,53.391537 43.353485,54.756618 
	C41.256199,56.796047 39.447803,59.132553 37.404179,61.471237 
	C43.480904,65.391991 46.223743,65.169174 51.229919,61.128433 
z"/>
<path fill="#D7D7D7" opacity="1.000000" stroke="none" 
	d="
M50.803963,61.098003 
	C46.223743,65.169174 43.480904,65.391991 37.404179,61.471237 
	C39.447803,59.132553 41.256199,56.796047 43.353485,54.756618 
	C44.757290,53.391537 46.824265,52.677711 48.123306,51.245186 
	C49.196808,50.061378 50.544285,47.400894 50.085331,46.880333 
	C48.778828,45.398453 46.611359,44.675640 44.353951,43.620476 
	C47.645737,41.073692 50.518009,41.765682 53.103699,45.798149 
	C54.947407,48.673466 53.025425,53.424843 49.271107,55.755970 
	C47.656445,56.758541 46.281807,58.147694 44.798119,59.361210 
	C44.975803,59.823376 45.153484,60.285545 45.331165,60.747711 
	C47.013447,60.854332 48.695724,60.960953 50.803963,61.098003 
z"/>
<path fill="#0A0A0A" opacity="1.000000" stroke="none" 
	d="
M46.292164,94.532021 
	C47.064537,92.350929 47.588615,89.833992 49.087708,88.924950 
	C50.567459,88.027634 53.753319,87.971588 54.865498,88.991524 
	C55.992020,90.024612 56.301392,93.292259 55.477089,94.719963 
	C54.699097,96.067459 52.017288,96.688652 50.102188,96.866180 
	C48.962307,96.971855 47.685936,95.605186 46.292164,94.532021 
z"/>
<path fill="#DDDDDD" opacity="1.000000" stroke="none" 
	d="
M66.663414,51.034409 
	C64.522285,52.778297 61.966972,54.497887 59.110146,56.344093 
	C59.403343,55.011627 59.603954,52.932358 60.688072,52.243450 
	C62.194664,51.286072 64.363747,51.371235 66.663414,51.034409 
z"/>
<path fill="#DDDDDD" opacity="1.000000" stroke="none" 
	d="
M75.819710,42.077202 
	C73.373833,45.027885 70.537437,47.946522 67.380486,50.971222 
	C67.055420,45.477379 72.506943,44.933090 75.819710,42.077202 
z"/>
<path fill="#DDDDDD" opacity="1.000000" stroke="none" 
	d="
M58.055283,56.594730 
	C56.480774,58.126572 54.557392,59.453583 52.300270,60.801613 
	C52.092648,57.030872 54.442612,56.118729 58.055283,56.594730 
z"/>
</svg>