<svg version="1.1" id="Layer_1" xmlns="http://www.w3.org/2000/svg" xmlns:xlink="http://www.w3.org/1999/xlink" x="0px" y="0px"
	 width="100%" viewBox="0 0 173 178" enable-background="new 0 0 173 178" xml:space="preserve">
<path fill="#FEFEFE" opacity="1.000000" stroke="none" 
	d="
M113.000000,179.000000 
	C75.333336,179.000000 38.166672,179.000000 1.000005,179.000000 
	C1.000003,119.666672 1.000003,60.333344 1.000002,1.000013 
	C58.666656,1.000009 116.333313,1.000009 173.999969,1.000004 
	C173.999985,60.333317 173.999985,119.666634 174.000000,178.999969 
	C153.833328,179.000000 133.666672,179.000000 113.000000,179.000000 
M81.297035,106.300728 
	C81.297035,106.300728 81.245850,106.364655 80.480927,106.165413 
	C77.263474,106.380585 75.708244,107.921997 76.336998,111.338341 
	C76.336998,111.338341 76.263908,111.412743 75.501419,111.185623 
	C73.041069,113.442093 70.475342,115.596245 68.153793,117.987465 
	C66.303383,119.893410 64.750816,122.088524 62.706001,124.715546 
	C54.287472,131.051346 45.757629,137.247360 37.518421,143.808365 
	C35.055367,145.769730 33.405022,148.751694 30.910025,151.853180 
	C36.415977,153.496872 40.053448,153.197586 43.527401,150.499329 
	C52.919796,143.204163 62.561924,136.222916 71.810974,128.753082 
	C79.973228,122.160988 88.331123,115.640297 95.525124,108.064835 
	C103.897034,99.248993 111.830864,89.815674 116.821815,77.957985 
	C117.850945,76.720406 119.093521,75.598648 119.846428,74.211174 
	C120.536110,72.940216 120.253326,70.596535 121.164848,70.081902 
	C126.067619,67.313843 124.739479,62.769844 124.838066,58.663532 
	C124.969322,53.196278 124.605385,47.703194 124.991516,42.259319 
	C125.550522,34.378117 120.500313,29.844152 115.076462,26.137339 
	C111.716949,23.841351 107.118233,22.897264 102.957306,22.450975 
	C101.168304,22.259090 99.078857,24.868414 96.701279,26.853376 
	C94.487183,30.598640 95.681389,32.546398 99.794449,33.642708 
	C104.641556,34.934677 110.025276,36.725590 111.013512,42.195721 
	C112.116028,48.298428 111.615623,54.690720 111.055664,60.993156 
	C110.059929,62.245544 108.860756,63.388699 108.115952,64.775826 
	C106.987434,66.877594 106.007927,69.095070 105.274734,71.363464 
	C104.528564,73.672035 104.157158,76.101730 103.527603,78.912491 
	C103.527603,78.912491 103.316391,79.303223 102.529892,79.159882 
	C101.522141,79.568535 100.136131,79.688881 99.568825,80.433220 
	C96.211792,84.837875 92.992714,89.351273 89.836784,93.904030 
	C88.356636,96.039291 87.121460,98.344383 85.628784,101.145111 
	C85.498291,101.516762 85.367798,101.888412 84.447716,102.126358 
	C81.578430,102.127350 80.700531,103.615318 81.297035,106.300728 
z"/>
<path fill="#0B0B0B" opacity="1.000000" stroke="none" 
	d="
M116.064728,78.023529 
	C111.830864,89.815674 103.897034,99.248993 95.525124,108.064835 
	C88.331123,115.640297 79.973228,122.160988 71.810974,128.753082 
	C62.561924,136.222916 52.919796,143.204163 43.527401,150.499329 
	C40.053448,153.197586 36.415977,153.496872 30.910025,151.853180 
	C33.405022,148.751694 35.055367,145.769730 37.518421,143.808365 
	C45.757629,137.247360 54.287472,131.051346 63.234734,124.385864 
	C66.817764,121.657425 69.872063,119.258659 73.271317,116.928009 
	C80.841789,109.755020 88.583107,102.945351 95.120796,95.128944 
	C99.887550,89.429825 103.067406,82.403419 107.219421,75.714279 
	C108.927055,70.625549 110.369980,65.791260 111.812897,60.956966 
	C111.615623,54.690720 112.116028,48.298428 111.013512,42.195721 
	C110.025276,36.725590 104.641556,34.934677 99.794449,33.642708 
	C95.681389,32.546398 94.487183,30.598640 97.353233,26.463448 
	C100.127357,26.059544 102.326653,25.672493 104.359085,26.092621 
	C116.804543,28.665237 124.302193,40.091614 121.907738,53.518631 
	C120.435936,61.771793 118.043678,69.860809 116.064728,78.023529 
z"/>
<path fill="#C6C6C6" opacity="1.000000" stroke="none" 
	d="
M116.443268,77.990753 
	C118.043678,69.860809 120.435936,61.771793 121.907738,53.518631 
	C124.302193,40.091614 116.804543,28.665237 104.359085,26.092621 
	C102.326653,25.672493 100.127357,26.059544 97.565552,26.139305 
	C99.078857,24.868414 101.168304,22.259090 102.957306,22.450975 
	C107.118233,22.897264 111.716949,23.841351 115.076462,26.137339 
	C120.500313,29.844152 125.550522,34.378117 124.991516,42.259319 
	C124.605385,47.703194 124.969322,53.196278 124.838066,58.663532 
	C124.739479,62.769844 126.067619,67.313843 121.164848,70.081902 
	C120.253326,70.596535 120.536110,72.940216 119.846428,74.211174 
	C119.093521,75.598648 117.850945,76.720406 116.443268,77.990753 
z"/>
<path fill="#868686" opacity="1.000000" stroke="none" 
	d="
M106.954697,75.968704 
	C103.067406,82.403419 99.887550,89.429825 95.120796,95.128944 
	C88.583107,102.945351 80.841789,109.755020 73.324600,116.598724 
	C74.109917,114.605125 75.186913,113.008934 76.263901,111.412743 
	C76.263908,111.412743 76.336998,111.338341 76.677284,111.216888 
	C78.426994,109.518517 79.836426,107.941589 81.245850,106.364655 
	C81.245850,106.364655 81.297035,106.300728 81.645645,106.217995 
	C83.075272,104.843529 84.156288,103.551796 85.237312,102.260063 
	C85.367798,101.888412 85.498291,101.516762 85.988815,100.747940 
	C93.890846,94.855446 99.230164,87.584427 103.316391,79.303223 
	C103.316391,79.303223 103.527603,78.912491 103.827187,78.525986 
	C105.069412,77.415894 106.012054,76.692299 106.954697,75.968704 
z"/>
<path fill="#D5D5D5" opacity="1.000000" stroke="none" 
	d="
M102.923141,79.231552 
	C99.230164,87.584427 93.890846,94.855446 86.062057,100.461639 
	C87.121460,98.344383 88.356636,96.039291 89.836784,93.904030 
	C92.992714,89.351273 96.211792,84.837875 99.568825,80.433220 
	C100.136131,79.688881 101.522141,79.568535 102.923141,79.231552 
z"/>
<path fill="#D5D5D5" opacity="1.000000" stroke="none" 
	d="
M107.219406,75.714272 
	C106.012054,76.692299 105.069412,77.415894 103.874207,78.308945 
	C104.157158,76.101730 104.528564,73.672035 105.274734,71.363464 
	C106.007927,69.095070 106.987434,66.877594 108.115952,64.775826 
	C108.860756,63.388699 110.059929,62.245544 111.434280,60.975060 
	C110.369980,65.791260 108.927055,70.625549 107.219406,75.714272 
z"/>
<path fill="#CDCDCD" opacity="1.000000" stroke="none" 
	d="
M75.882660,111.299179 
	C75.186913,113.008934 74.109917,114.605125 72.979637,116.530602 
	C69.872063,119.258659 66.817764,121.657425 63.414753,124.105736 
	C64.750816,122.088524 66.303383,119.893410 68.153793,117.987465 
	C70.475342,115.596245 73.041069,113.442093 75.882660,111.299179 
z"/>
<path fill="#CDCDCD" opacity="1.000000" stroke="none" 
	d="
M80.863388,106.265038 
	C79.836426,107.941589 78.426994,109.518517 76.714630,111.180489 
	C75.708244,107.921997 77.263474,106.380585 80.863388,106.265038 
z"/>
<path fill="#CDCDCD" opacity="1.000000" stroke="none" 
	d="
M84.842514,102.193207 
	C84.156288,103.551796 83.075272,104.843529 81.679581,106.195084 
	C80.700531,103.615318 81.578430,102.127350 84.842514,102.193207 
z"/>
</svg>